<svg width="641" height="543" viewBox="0 0 641 543" fill="none" xmlns="http://www.w3.org/2000/svg">
<path d="M173.385 330.932H112.849V106.82H389.489V108.391H114.22V329.361H173.385V330.932Z" fill="#373133"/>
<path d="M112.986 479.798L112.712 494.355L112.392 509.645L111.798 540.905H95.3044V479.798H112.986Z" fill="#DBDCF1"/>
<path d="M112.986 479.798L112.392 509.645L95.3044 507.027V479.798H112.986Z" fill="#AFAFD5"/>
<path d="M248.45 480.165V540.906H231.957L231.683 527.396L231.043 494.355L230.769 480.165H248.45Z" fill="#DBDCF1"/>
<path d="M248.45 480.165V531.428L231.683 527.396L230.769 480.165H248.45Z" fill="#AFAFD5"/>
<path d="M457.472 479.798L457.152 494.355L456.878 509.645L456.238 540.905H439.791V479.798H457.472Z" fill="#DBDCF1"/>
<path d="M592.891 480.165V540.906H576.443L576.169 527.396L575.529 494.355L575.209 480.165H592.891Z" fill="#DBDCF1"/>
<path d="M457.472 479.798L456.878 509.645L439.791 507.027V479.798H457.472Z" fill="#AFAFD5"/>
<path d="M592.891 480.165V531.428L576.169 527.396L575.209 480.165H592.891Z" fill="#AFAFD5"/>
<path d="M609.521 473.305H79.04V494.408H609.521V473.305Z" fill="#DBDCF1"/>
<path d="M249.501 410.261L241.323 473.62H281.574L289.752 410.261H249.501Z" fill="#373133"/>
<path d="M157.76 270.243L166.03 409.633C166.395 415.55 170.69 420.157 175.898 420.157H366.097C371.808 420.157 376.331 414.607 375.965 408.062L367.696 268.672C367.33 262.755 363.035 258.148 357.827 258.148H167.583C161.872 258.148 157.349 263.698 157.76 270.243Z" fill="#373133"/>
<path d="M256.994 410.261L248.816 473.62H289.067L297.291 410.261H256.994Z" fill="#8A71B8"/>
<path d="M374.275 420.157H184.031C178.822 420.157 174.528 415.55 174.162 409.633L173.157 392.667L165.893 270.243C165.527 263.698 170.05 258.148 175.761 258.148H365.959C371.168 258.148 375.463 262.755 375.828 268.672L383.184 392.667L384.098 408.114C384.509 414.607 379.986 420.157 374.275 420.157Z" fill="#8A71B8"/>
<path d="M183.437 391.829L176.858 280.297C176.492 274.694 180.604 269.929 185.767 269.929H357.644C362.35 269.929 366.234 273.909 366.553 278.988L373.224 391.881H183.437V391.829Z" fill="white"/>
<path d="M233.465 464.247H188.097V473.62H233.465V464.247Z" fill="#373133"/>
<path d="M352.208 464.247H231.089V473.62H352.208V464.247Z" fill="#8A71B8"/>
<path d="M363.035 365.491H259.324L254.207 284.329H357.918L363.035 365.491ZM260.603 363.92H361.573L356.639 285.9H255.669L260.603 363.92Z" fill="#DBDCF1"/>
<path d="M188.234 284.329L189.147 304.227H247.628L246.714 284.329H188.234Z" fill="#DBDCF1"/>
<path d="M189.604 311.034L190.061 317.841H248.542L248.085 311.034H189.604Z" fill="#DBDCF1"/>
<path d="M190.518 324.648L190.975 331.455H249.456L248.999 324.648H190.518Z" fill="#DBDCF1"/>
<path d="M191.432 338.262L191.889 345.069H250.369L249.912 338.262H191.432Z" fill="#DBDCF1"/>
<path d="M252.014 359.469H192.163L191.615 351.091H251.466L252.014 359.469ZM193.442 357.898H250.552L250.187 352.662H193.077L193.442 357.898Z" fill="#DBDCF1"/>
<path d="M412.058 250.398C412.058 250.398 403.469 332.764 441.847 312.448L446.872 357.689L487.809 347.216L470.584 307.892L451.533 244.638L412.058 250.398Z" fill="#FCBB9D"/>
<path d="M452.766 327.79C452.766 327.79 490.87 332.764 501.195 306.321C504.073 298.938 508.962 284.015 495.119 274.642C490.504 271.552 480.59 265.426 479.813 257.572C479.219 251.497 475.153 242.962 468.62 236.731C468.62 236.731 450.071 214.215 417.267 241.706C417.267 241.706 405.342 241.653 403.697 252.231C403.697 252.231 401.916 265.635 411.236 269.353L411.51 257.833C411.51 257.833 427.409 279.721 439.699 282.706C439.699 282.706 444.588 271.081 450.71 279.093C450.71 279.093 453.314 290.926 443.491 295.43C443.491 295.43 444.771 301.085 448.654 307.892C451.121 312.238 454.137 317.317 452.766 327.79Z" fill="#373133"/>
<path d="M440.43 350.829L442.715 335.644L482.92 325.695L488.403 338.786L440.43 350.829Z" fill="#D87245"/>
<path d="M334.526 365.02C334.526 365.02 281.163 354.442 270.289 331.298C270.289 331.298 260.009 357.322 256.765 366.067C256.446 366.905 255.897 369.052 255.897 369.052C255.897 369.052 249.181 393.557 329.089 417.749L334.526 365.02Z" fill="#DBDCF1"/>
<path d="M276.046 303.703L270.609 356.38C270.609 356.38 260.101 358.317 256.172 367.795L261.608 315.118C261.654 315.118 263.939 307.107 276.046 303.703Z" fill="#AFAFD5"/>
<path d="M320.043 432.253L305.88 451.104L299.164 443.406L277.553 418.639L272.071 402.93L270.929 391.672L290.803 403.454C290.803 403.454 291.717 405.548 294.229 405.286C294.229 405.286 296.971 403.192 296.514 394.814C296.514 394.814 290.803 382.509 295.372 376.749L306.794 394.028C306.794 394.028 310.906 407.643 309.992 420.733L320.043 432.253Z" fill="#FCBB9D"/>
<path d="M320.043 432.253L305.88 451.104L299.164 443.406L315.109 426.598L320.043 432.253Z" fill="#E6A68A"/>
<path d="M299.712 454.769L318.444 427.802L365.045 451.627L413.703 364.444C413.703 364.444 428.323 341.404 486.347 331.979C486.347 331.979 516.957 330.932 523.811 396.385L527.466 540.905H394.514L398.626 503.204C398.626 503.204 384.234 521.793 373.955 515.771C352.344 503.047 299.712 454.769 299.712 454.769Z" fill="#F1884F"/>
<path d="M426.724 421.833L395.656 541.167H522.212L551.498 428.797C553.554 420.995 548.437 413.141 541.309 413.141H436.958C432.252 413.141 428.095 416.701 426.724 421.833Z" fill="#AFAFD5"/>
<path d="M444.542 421.833L413.475 541.167H540.03L569.316 428.797C571.372 420.995 566.255 413.141 559.127 413.141H454.776C450.071 413.141 445.913 416.701 444.542 421.833Z" fill="#DBDCF1"/>
<path d="M377.564 20.4738H508.277C510.927 20.4738 513.028 22.9348 513.028 25.9195V163.685C513.028 166.722 510.881 169.131 508.277 169.131H377.564C374.914 169.131 372.812 166.67 372.812 163.685V25.9195C372.812 22.9348 374.96 20.4738 377.564 20.4738Z" fill="#DBDCF1"/>
<path d="M484.794 27.7522H400.545V34.7688H484.794V27.7522Z" fill="#AFAFD5"/>
<path d="M464.279 43.4086H380.534V158.711H464.279V43.4086Z" fill="white"/>
<path d="M451.167 53.9858H393.601V59.641H451.167V53.9858Z" fill="#DBDCF1"/>
<path d="M451.259 63.9347H393.692V69.5899H451.259V63.9347Z" fill="#DBDCF1"/>
<path d="M505.718 61.7355H470.95V76.2399H505.718V61.7355Z" fill="#AFAFD5"/>
<path d="M505.718 113.627H470.95V135.462H505.718V113.627Z" fill="#AFAFD5"/>
<path d="M505.673 83.4659H481.55V97.9704H505.673V83.4659Z" fill="#AFAFD5"/>
<path d="M505.718 100.955H491.327V105.982H505.718V100.955Z" fill="#AFAFD5"/>
<path d="M505.718 139.808H491.327V144.835H505.718V139.808Z" fill="#AFAFD5"/>
<path d="M485.25 139.703H470.859V144.73H485.25V139.703Z" fill="#AFAFD5"/>
<path d="M427.364 88.2833C427.364 88.2833 426.953 85.6652 424.805 84.8797C424.805 84.8797 410.916 83.047 400.774 97.9704C397.438 102.892 395.154 113.836 398.489 122.79C401.596 131.116 409.409 143.473 424.166 142.845C431.43 142.531 444.223 135.933 446.873 120.748C448.243 112.894 447.055 99.5413 434.445 92.1058C434.445 92.1058 425.719 87.2884 418.455 89.3305C418.455 89.3305 418.683 91.1109 420.511 92.0534C420.511 92.0534 435.907 89.9589 442.167 102.107C442.167 102.107 450.025 115.983 437.735 132.006C437.735 132.006 424.714 147.401 407.855 134.938C407.855 134.938 399.174 129.388 399.586 113.993C399.768 107.5 402.373 98.494 411.83 92.42C415.211 90.2207 419.962 87.7073 427.364 88.2833Z" fill="#E8315D"/>
<path d="M440.293 109.228L437.598 109.542V106.348C437.598 106.034 437.552 105.772 437.415 105.511C437.05 104.778 436.136 103.259 435.131 103.521C434.857 103.573 434.674 103.887 434.674 104.202V110.066L429.922 110.799C429.694 110.852 429.557 111.166 429.694 111.375C429.968 111.794 430.471 112.422 431.43 113.103C431.658 113.313 431.978 113.365 432.298 113.365L434.674 113.156V118.549C434.674 118.915 434.765 119.334 434.994 119.649C435.542 120.486 436.684 121.9 437.461 120.486L437.689 112.632L442.624 111.899C442.806 111.846 442.943 111.585 442.806 111.428C442.258 110.747 441.161 109.281 440.293 109.228Z" fill="#E8315D"/>
<path d="M424.623 99.3842C422.567 96.4519 420.328 97.0802 420.328 97.0802C417.632 98.6511 413.658 113.836 413.658 113.836L405.799 115.407C407.17 117.921 408.815 117.973 408.815 117.973L412.652 117.502L410.962 125.618C411.739 126.822 414.252 127.765 414.252 127.765L416.445 116.769L422.521 115.669L422.293 127.032C422.43 130.592 425.719 130.749 425.719 130.749L425.902 107.291C425.902 101.531 424.623 99.3842 424.623 99.3842ZM417.313 113.47C419.277 106.034 422.338 100.641 422.338 100.641L422.567 112.737L417.313 113.47Z" fill="#E8315D"/>
<path d="M280.523 9.84419V197.512C280.523 202.957 276.685 207.356 271.934 207.356H32.9409C28.1893 207.356 24.3516 202.957 24.3516 197.512V9.84419C24.3516 4.39848 28.1893 0 32.9409 0H271.934C276.64 0 280.523 4.39848 280.523 9.84419Z" fill="#DBDCF1"/>
<path d="M280.477 9.84419V23.249H24.3516V9.84419C24.3516 4.39848 28.1893 0 32.9409 0H271.934C276.64 0 280.477 4.39848 280.477 9.84419Z" fill="#AFAFD5"/>
<path d="M37.1899 15.7611C39.0067 15.7611 40.4794 14.0732 40.4794 11.991C40.4794 9.90886 39.0067 8.22089 37.1899 8.22089C35.3732 8.22089 33.9004 9.90886 33.9004 11.991C33.9004 14.0732 35.3732 15.7611 37.1899 15.7611Z" fill="white"/>
<path d="M51.4902 15.7611C53.307 15.7611 54.7797 14.0732 54.7797 11.991C54.7797 9.90886 53.307 8.22089 51.4902 8.22089C49.6735 8.22089 48.2007 9.90886 48.2007 11.991C48.2007 14.0732 49.6735 15.7611 51.4902 15.7611Z" fill="white"/>
<path d="M66.4301 15.7611C68.2469 15.7611 69.7197 14.0732 69.7197 11.991C69.7197 9.90886 68.2469 8.22089 66.4301 8.22089C64.6134 8.22089 63.1406 9.90886 63.1406 11.991C63.1406 14.0732 64.6134 15.7611 66.4301 15.7611Z" fill="white"/>
<path d="M258.684 147.977H97.8176V186.306H258.684V147.977Z" fill="white"/>
<path d="M80.6847 115.459C80.6847 120.067 79.2684 124.256 76.9383 127.555C76.6642 127.922 76.39 128.288 76.1159 128.602C73.0548 132.32 68.7602 134.624 63.963 134.624C58.2063 134.624 53.1349 131.325 50.1652 126.246C50.0282 125.984 49.8454 125.723 49.7083 125.461C48.155 122.528 47.2412 119.125 47.2412 115.459C47.2412 104.882 54.734 96.2948 63.963 96.2948C73.1919 96.2948 80.6847 104.882 80.6847 115.459Z" fill="white"/>
<path d="M76.1161 128.655C73.055 132.373 68.7603 134.677 63.9631 134.677C58.2064 134.677 53.1351 131.378 50.1654 126.299C50.0283 126.037 49.8456 125.775 49.7085 125.513C50.4852 121.534 54.5971 118.339 54.5971 118.339C57.978 115.721 58.1151 111.218 58.1151 111.218C58.709 101.374 63.6433 101.583 63.6433 101.583C63.6433 101.583 69.6284 100.117 71.5473 104.568C73.4662 109.019 71.0447 113.051 71.0447 113.051C71.0447 113.051 68.806 118.915 70.999 120.486C75.7049 123.89 76.1161 127.765 76.1161 127.765C76.1161 128.079 76.1617 128.341 76.1161 128.655Z" fill="#373133"/>
<path d="M68.4405 127.765L67.6638 118.811C67.6638 118.811 72.1869 120.067 70.8163 108.233C70.8163 108.233 69.5827 108.862 69.1715 106.663C69.1715 106.663 67.3897 109.909 63.826 108.181C63.826 108.181 63.5519 110.118 62.3183 110.59C62.3183 110.59 60.8563 108.495 59.8055 109.7C58.6176 111.113 60.2167 113.417 61.0391 113.993L59.7598 127.765H68.4405Z" fill="#FCBB9D"/>
<path d="M76.9383 127.555C73.8773 131.849 69.2171 134.624 63.963 134.624C58.2063 134.624 53.135 131.325 50.1653 126.246C50.348 126.141 50.5308 125.984 50.7592 125.932L60.2166 121.952C60.2166 121.952 66.2017 128.917 68.0749 121.952L75.385 126.246C75.9789 126.613 76.4815 127.032 76.9383 127.555Z" fill="#E8315D"/>
<path d="M80.6847 63.9347C80.6847 68.5426 79.2684 72.7316 76.9383 76.0305C76.7099 76.397 76.4357 76.7112 76.1616 77.0254L76.1159 77.0777C73.0548 80.7955 68.7602 83.0994 63.963 83.0994C58.2063 83.0994 53.1349 79.8006 50.1652 74.7214C50.1652 74.7214 50.1652 74.669 50.1196 74.669C49.9825 74.4072 49.8454 74.1454 49.7083 73.936C48.155 71.0036 47.2412 67.6001 47.2412 63.9347C47.2412 53.3575 54.734 44.77 63.963 44.77C73.1919 44.77 80.6847 53.3575 80.6847 63.9347Z" fill="white"/>
<path d="M58.6176 75.0356C58.5262 74.9309 59.3486 63.9347 59.3486 63.9347C59.3486 63.9347 57.1099 62.5209 57.0642 60.1123C57.0642 59.4839 57.247 58.9079 58.0237 58.4366L58.3892 54.4047H69.2172C69.2172 54.4047 72.6894 69.747 66.2475 69.2757L67.1155 75.245L58.6176 75.0356Z" fill="#FCBB9D"/>
<path d="M60.1711 60.7929C60.1711 60.7929 59.8056 57.337 57.5212 58.8555C57.5212 58.8555 55.9678 57.1799 57.5212 55.9232C57.5212 55.9232 55.8308 51.7865 59.6228 51.42C59.6228 51.42 59.0746 48.4877 69.263 48.7495C69.263 48.7495 70.725 49.0113 70.6336 51.6818C70.6336 51.6818 70.4052 53.2527 69.263 53.6193C69.263 53.6193 70.6336 55.0854 69.263 55.9232C67.8923 56.761 63.9632 55.0854 63.9632 55.0854C63.9632 55.0854 65.014 55.8185 64.6942 56.2897C64.3744 56.761 61.1762 55.6614 61.1762 55.6614L60.9478 61.0024L60.1711 60.7929Z" fill="#373133"/>
<path d="M76.1617 77.0254L76.116 77.0777C73.0549 80.7954 68.7603 83.0994 63.963 83.0994C58.2064 83.0994 53.135 79.8006 50.1653 74.7214C50.1653 74.7214 50.1653 74.669 50.1196 74.669L58.3891 71.5273C58.3891 71.5273 64.1001 78.4391 66.7957 71.5273L74.5169 75.7163C75.1565 76.0305 75.7048 76.5017 76.1617 77.0254Z" fill="#4D5DA8"/>
<path d="M80.6847 167.141C80.6847 171.749 79.2684 175.938 76.9383 179.237C76.7099 179.604 76.4357 179.918 76.1616 180.232L76.1159 180.284C73.0548 184.002 68.7602 186.306 63.963 186.306C58.2063 186.306 53.1349 183.007 50.1652 177.928C50.1652 177.928 50.1652 177.876 50.1196 177.876C49.9825 177.614 49.8454 177.352 49.7083 177.143C48.155 174.21 47.2412 170.807 47.2412 167.141C47.2412 156.564 54.734 147.977 63.963 147.977C73.1919 147.977 80.6847 156.564 80.6847 167.141Z" fill="white"/>
<path d="M58.6176 178.242C58.5262 178.138 59.3486 167.141 59.3486 167.141C59.3486 167.141 57.1099 165.728 57.0642 163.319C57.0642 162.691 57.247 162.115 58.0237 161.643L58.3892 157.611H69.2172C69.2172 157.611 72.6894 172.954 66.2475 172.482L67.1155 178.452L58.6176 178.242Z" fill="#FCBB9D"/>
<path d="M60.1709 163.424C60.1709 163.424 59.8968 160.963 57.521 162.062C57.521 162.062 56.1047 155.936 59.9425 155.569C59.9425 155.569 61.4502 150.647 68.8973 154.941C69.9481 155.569 70.7248 157.664 69.3085 159.182C68.5775 159.968 65.1509 159.653 62.8665 159.287C61.77 159.13 60.8106 160.177 60.8563 161.434L61.039 163.633L60.1709 163.424Z" fill="#373133"/>
<path d="M76.1617 180.232L76.116 180.284C73.0549 184.002 68.7603 186.306 63.963 186.306C58.2064 186.306 53.135 183.007 50.1653 177.928C50.1653 177.928 50.1653 177.876 50.1196 177.876L58.3891 174.734C58.3891 174.734 64.1001 181.646 66.7957 174.734L74.5169 178.923C75.1565 179.237 75.7048 179.708 76.1617 180.232Z" fill="#00B36E"/>
<path d="M127.515 155.098C127.515 155.098 127.332 153.789 126.281 153.422C126.281 153.422 119.474 152.532 114.448 159.863C112.803 162.272 111.707 167.665 113.306 172.063C114.814 176.148 118.651 182.222 125.916 181.96C129.479 181.803 135.784 178.556 137.064 171.069C137.749 167.194 137.155 160.648 130.941 156.983C130.941 156.983 126.647 154.627 123.083 155.622C123.083 155.622 123.22 156.512 124.088 156.931C124.088 156.931 131.672 155.883 134.733 161.905C134.733 161.905 138.571 168.712 132.54 176.619C132.54 176.619 126.144 184.212 117.829 178.033C117.829 178.033 113.58 175.31 113.763 167.717C113.854 164.523 115.133 160.125 119.794 157.14C121.575 155.988 123.905 154.784 127.515 155.098Z" fill="#E8315D"/>
<path d="M120.159 175.729H121.986L122.946 169.393L127.697 167.246C127.697 167.246 127.606 166.356 126.738 166.147C126.51 166.094 126.235 166.094 126.007 166.199L123.174 167.141L123.905 162.952L129.708 161.12C129.708 161.12 129.616 159.601 128.291 159.601C128.2 159.601 128.109 159.601 128.017 159.654L124.591 160.544L124.682 159.863L122.9 159.968L122.763 161.172C122.763 161.172 121.484 161.539 121.255 162.638C121.255 162.691 121.255 162.795 121.255 162.848V164.261L121.986 163.947C121.941 164 120.57 172.378 120.159 175.729Z" fill="#E8315D"/>
<path d="M258.684 44.77H97.8176V83.0994H258.684V44.77Z" fill="white"/>
<path d="M258.684 96.6613H97.8176V134.991H258.684V96.6613Z" fill="white"/>
<path d="M127.743 51.3153C127.743 51.3153 127.56 50.0063 126.51 49.6397C126.51 49.6397 119.702 48.7495 114.722 56.0279C113.077 58.4366 111.981 63.8299 113.58 68.176C115.088 72.2603 118.925 78.282 126.144 78.0202C129.708 77.8631 135.967 74.669 137.246 67.1812C137.932 63.3587 137.338 56.8134 131.17 53.148C131.17 53.148 126.875 50.7917 123.357 51.7866C123.357 51.7866 123.494 52.6244 124.362 53.0956C124.362 53.0956 131.901 52.0484 134.962 58.0177C134.962 58.0177 138.8 64.8248 132.815 72.6269C132.815 72.6269 126.418 80.1671 118.194 74.0407C118.194 74.0407 113.946 71.3178 114.174 63.7776C114.265 60.5835 115.545 56.185 120.159 53.2003C121.804 52.2578 124.134 51.0535 127.743 51.3153Z" fill="#E8315D"/>
<path d="M134.094 61.5783L132.769 61.7354V60.1646C132.769 60.0075 132.723 59.9027 132.678 59.7456C132.495 59.3791 132.084 58.646 131.535 58.7507C131.398 58.8031 131.307 58.9079 131.307 59.065V61.9449L128.977 62.3114C128.84 62.3114 128.794 62.4685 128.885 62.6256C129.022 62.835 129.251 63.1492 129.753 63.4634C129.891 63.5681 130.028 63.6205 130.165 63.5681L131.353 63.4634V66.1339C131.353 66.3434 131.398 66.5004 131.49 66.6575C131.764 67.0764 132.312 67.7571 132.678 67.0764L132.815 63.254L135.236 62.8874C135.327 62.8874 135.373 62.7303 135.327 62.6256C135.053 62.3114 134.505 61.5783 134.094 61.5783Z" fill="#E8315D"/>
<path d="M126.418 56.7611C125.413 55.3473 124.317 55.6615 124.317 55.6615C122.992 56.4469 121.073 63.8824 121.073 63.8824L117.235 64.6678C117.92 65.8721 118.697 65.9245 118.697 65.9245L120.57 65.7151L119.748 69.6946C120.113 70.2706 121.347 70.7418 121.347 70.7418L122.398 65.3485L125.368 64.8249L125.23 70.3753C125.276 72.1033 126.921 72.208 126.921 72.208L127.012 60.7406C127.012 57.8083 126.418 56.7611 126.418 56.7611ZM122.855 63.6729C123.814 60.0075 125.322 57.3894 125.322 57.3894L125.459 63.3064L122.855 63.6729Z" fill="#E8315D"/>
<path d="M162.512 50.7393C162.512 50.7393 162.329 49.4302 161.278 49.0637C161.278 49.0637 154.47 48.1736 149.491 55.4519C147.846 57.8606 146.749 63.2016 148.348 67.6C149.856 71.6843 153.694 77.706 160.912 77.4442C164.476 77.2871 170.735 74.093 172.015 66.6051C172.7 62.7827 172.106 56.2374 165.938 52.572C165.938 52.572 161.643 50.2157 158.126 51.2106C158.126 51.2106 158.263 52.0484 159.131 52.5197C159.131 52.5197 166.669 51.4724 169.73 57.4417C169.73 57.4417 173.568 64.2488 167.583 72.0509C167.583 72.0509 161.187 79.5911 152.963 73.4647C152.963 73.4647 148.714 70.7418 148.942 63.2016C149.034 60.0075 150.313 55.609 154.927 52.6244C156.572 51.6818 158.857 50.4775 162.512 50.7393Z" fill="#E8315D"/>
<path d="M168.817 60.95L167.492 61.1071V59.5362C167.492 59.3791 167.446 59.2744 167.4 59.1173C167.217 58.7508 166.806 58.0177 166.258 58.1224C166.121 58.1748 166.03 58.2795 166.03 58.4366V61.3165L163.699 61.6831C163.562 61.6831 163.517 61.8402 163.608 61.9973C163.745 62.2067 163.974 62.5209 164.476 62.8351C164.613 62.9398 164.75 62.9921 164.887 62.9398L166.075 62.8351V65.5055C166.075 65.715 166.121 65.8721 166.212 66.0292C166.486 66.4481 167.035 67.1288 167.4 66.4481L167.537 62.6256L169.959 62.2591C170.05 62.2591 170.096 62.102 170.05 61.9973C169.822 61.7355 169.273 61.0024 168.817 60.95Z" fill="#E8315D"/>
<path d="M161.187 56.1851C160.182 54.7713 159.085 55.0854 159.085 55.0854C157.76 55.8708 155.841 63.3064 155.841 63.3064L152.003 64.0918C152.689 65.2961 153.465 65.3485 153.465 65.3485L155.339 65.1391L154.516 69.1186C154.882 69.6946 156.115 70.1658 156.115 70.1658L157.166 64.7725L160.136 64.2488L159.999 69.7993C160.044 71.5273 161.689 71.632 161.689 71.632L161.781 60.1646C161.781 57.2323 161.187 56.1851 161.187 56.1851ZM157.577 63.0445C158.537 59.3792 160.044 56.761 160.044 56.761L160.182 62.678L157.577 63.0445Z" fill="#E8315D"/>
<path d="M127.652 103.207C127.652 103.207 127.469 101.898 126.418 101.531C126.418 101.531 119.611 100.641 114.585 107.972C112.94 110.38 111.844 115.774 113.443 120.172C114.951 124.256 118.788 130.33 126.053 130.069C129.616 129.912 135.921 126.665 137.2 119.177C137.886 115.302 137.292 108.757 131.078 105.092C131.078 105.092 126.784 102.735 123.22 103.73C123.22 103.73 123.357 104.62 124.225 105.039C124.225 105.039 131.809 103.992 134.87 110.014C134.87 110.014 138.708 116.821 132.677 124.728C132.677 124.728 126.281 132.32 117.966 126.141C117.966 126.141 113.717 123.419 113.9 115.826C113.991 112.632 115.27 108.233 119.93 105.249C121.712 104.149 124.042 102.945 127.652 103.207Z" fill="#E8315D"/>
<path d="M130.073 119.02C130.073 119.02 129.845 116.507 127.058 116.088C127.058 116.088 129.525 113.627 129.114 111.323C128.703 109.071 128.109 108.548 125.642 108.129L124.042 107.134C124.042 107.134 122.489 113.417 121.393 121.743L120.022 121.062V122.057C120.022 122.057 120.525 122.424 121.164 122.79V123.733C121.667 124.361 122.58 124.623 122.58 124.623L122.672 123.471C123.768 123.838 125.185 124.047 126.784 123.785C126.784 123.785 130.347 123.052 130.073 119.02ZM124.865 111.009C124.865 111.009 125.23 109.438 126.784 109.071C126.784 109.071 127.606 108.914 127.698 110.066C127.698 110.066 128.109 112.946 125.367 115.093C125.276 115.145 125.185 115.198 125.093 115.25C124.865 115.355 124.454 115.512 123.951 115.512L124.865 111.009ZM127.286 121.429C127.149 121.586 127.012 121.691 126.829 121.795C126.281 122.11 125.002 122.686 122.9 122.371L123.768 116.978C123.768 116.978 126.875 115.878 128.109 117.345C128.109 117.397 129.251 119.334 127.286 121.429Z" fill="#E8315D"/>
<path d="M163.288 105.353C163.288 105.353 163.106 104.044 162.055 103.678C162.055 103.678 155.247 102.788 150.267 110.066C148.623 112.475 147.526 117.816 149.125 122.214C150.633 126.299 154.471 132.32 161.689 132.058C165.253 131.901 171.512 128.707 172.791 121.219C173.477 117.397 172.883 110.852 166.715 107.186C166.715 107.186 162.42 104.83 158.902 105.825C158.902 105.825 159.039 106.663 159.908 107.134C159.908 107.134 167.446 106.087 170.507 112.056C170.507 112.056 174.345 118.863 168.36 126.665C168.36 126.665 161.963 134.205 153.74 128.079C153.74 128.079 149.491 125.356 149.719 117.816C149.811 114.622 151.09 110.223 155.704 107.239C157.349 106.296 159.679 105.092 163.288 105.353Z" fill="#E8315D"/>
<path d="M169.639 115.617L168.314 115.774V114.203C168.314 114.046 168.268 113.941 168.223 113.784C168.04 113.417 167.629 112.684 167.08 112.789C166.943 112.841 166.852 112.946 166.852 113.103V115.983L164.522 116.35C164.385 116.35 164.339 116.507 164.431 116.664C164.568 116.873 164.796 117.187 165.299 117.502C165.436 117.606 165.573 117.659 165.71 117.606L166.898 117.502V120.172C166.898 120.382 166.943 120.539 167.035 120.696C167.309 121.115 167.857 121.795 168.223 121.115L168.36 117.292L170.781 116.926C170.873 116.926 170.918 116.769 170.873 116.664C170.598 116.35 170.05 115.617 169.639 115.617Z" fill="#E8315D"/>
<path d="M161.963 110.799C160.958 109.385 159.862 109.7 159.862 109.7C158.537 110.485 156.618 117.921 156.618 117.921L152.78 118.706C153.465 119.91 154.242 119.963 154.242 119.963L156.115 119.753L155.293 123.733C155.658 124.309 156.892 124.78 156.892 124.78L157.943 119.387L160.912 118.863L160.775 124.413C160.821 126.141 162.466 126.246 162.466 126.246L162.557 114.779C162.557 111.846 161.963 110.799 161.963 110.799ZM158.4 117.659C159.359 113.993 160.867 111.375 160.867 111.375L161.004 117.292L158.4 117.659Z" fill="#E8315D"/>
<path d="M199.747 103.207C199.747 103.207 199.564 101.898 198.513 101.531C198.513 101.531 191.706 100.641 186.68 107.972C185.035 110.38 183.939 115.774 185.538 120.172C187.046 124.256 190.884 130.33 198.148 130.069C201.712 129.912 208.016 126.665 209.296 119.177C209.981 115.302 209.387 108.757 203.174 105.092C203.174 105.092 198.879 102.735 195.315 103.73C195.315 103.73 195.452 104.62 196.32 105.039C196.32 105.039 203.905 103.992 206.966 110.014C206.966 110.014 210.803 116.821 204.773 124.728C204.773 124.728 198.376 132.32 190.061 126.141C190.061 126.141 185.812 123.419 185.995 115.826C186.086 112.632 187.366 108.233 192.026 105.249C193.762 104.149 196.092 102.945 199.747 103.207Z" fill="#E8315D"/>
<path d="M202.077 116.507L201.072 115.25H200.752V112.789C200.752 109.961 200.158 108.914 200.158 108.914C199.153 107.5 198.057 107.762 198.057 107.762C196.732 108.548 194.767 115.983 194.767 115.983L192.026 116.559C192.711 117.763 193.488 117.816 193.488 117.816L194.265 117.763L193.442 121.743C193.808 122.319 195.087 122.79 195.087 122.79L196.138 117.397L199.107 116.873L198.97 122.476C199.016 124.256 200.661 124.309 200.661 124.309L200.707 116.716L202.077 116.507ZM196.595 115.774C197.554 112.108 199.062 109.438 199.062 109.438L199.199 115.407L196.595 115.774Z" fill="#E8315D"/>
<path d="M236.297 102.945C236.297 102.945 236.114 101.636 235.064 101.269C235.064 101.269 228.256 100.379 223.231 107.71C221.586 110.118 220.489 115.512 222.088 119.91C223.596 123.995 227.434 130.069 234.698 129.807C238.262 129.65 244.567 126.403 245.846 118.915C246.531 115.041 245.937 108.495 239.724 104.83C239.724 104.83 235.429 102.474 231.866 103.468C231.866 103.468 232.003 104.359 232.871 104.777C232.871 104.777 240.455 103.73 243.516 109.752C243.516 109.752 247.354 116.559 241.323 124.466C241.323 124.466 234.927 132.058 226.611 125.88C226.611 125.88 222.362 123.157 222.545 115.564C222.637 112.37 223.916 107.972 228.576 104.987C230.358 103.887 232.642 102.683 236.297 102.945Z" fill="#E8315D"/>
<path d="M235.749 112.422L237.485 113.365C237.485 113.365 237.805 109.281 236.526 107.972C236.526 107.972 235.155 106.348 234.104 107.605C234.104 107.605 231.546 110.485 230.495 114.779C230.495 114.779 229.261 119.544 230.495 121.534C230.495 121.534 231.089 122.79 232.871 123.104C233.693 123.261 234.515 123.052 235.201 122.476C235.932 121.848 236.8 120.696 237.394 118.601L235.886 117.554C235.886 117.554 235.018 121.376 232.871 122.11C232.596 122.214 232.094 122.267 231.637 121.743C231.454 121.534 231.317 121.062 231.317 120.748C231.271 119.858 231.363 117.659 232.322 114.779C233.053 112.632 234.835 109.647 235.429 108.652C235.52 108.548 235.658 108.548 235.703 108.705C235.749 109.385 235.886 110.59 235.749 112.422Z" fill="#E8315D"/>
<path d="M230.176 153.318C230.176 153.318 229.993 152.009 228.942 151.642C228.942 151.642 222.135 150.752 217.155 158.03C215.51 160.439 214.413 165.78 216.012 170.178C217.52 174.263 221.358 180.284 228.577 180.023C232.14 179.865 238.399 176.671 239.679 169.183C240.364 165.361 239.77 158.816 233.602 155.15C233.602 155.15 229.308 152.794 225.79 153.789C225.79 153.789 225.927 154.627 226.795 155.098C226.795 155.098 234.333 154.051 237.394 160.02C237.394 160.02 241.232 166.827 235.247 174.629C235.247 174.629 228.851 182.169 220.627 176.043C220.627 176.043 216.378 173.32 216.606 165.78C216.698 162.586 217.977 158.187 222.591 155.203C224.236 154.26 226.566 153.056 230.176 153.318Z" fill="#E8315D"/>
<path d="M236.526 163.581L235.201 163.738V162.167C235.201 162.01 235.156 161.905 235.11 161.748C234.927 161.381 234.516 160.648 233.968 160.753C233.831 160.805 233.739 160.91 233.739 161.067V163.947L231.409 164.314C231.272 164.314 231.226 164.471 231.318 164.628C231.455 164.837 231.683 165.152 232.186 165.466C232.323 165.57 232.46 165.623 232.597 165.57L233.785 165.466V168.136C233.785 168.346 233.831 168.503 233.922 168.66C234.196 169.079 234.744 169.759 235.11 169.079L235.247 165.256L237.668 164.89C237.76 164.89 237.805 164.733 237.76 164.628C237.486 164.314 236.937 163.633 236.526 163.581Z" fill="#E8315D"/>
<path d="M228.851 158.763C227.845 157.35 226.749 157.664 226.749 157.664C225.424 158.449 223.505 165.885 223.505 165.885L219.667 166.67C220.353 167.874 221.129 167.927 221.129 167.927L223.002 167.717L222.18 171.697C222.546 172.273 223.779 172.744 223.779 172.744L224.83 167.351L227.8 166.827L227.663 172.378C227.708 174.106 229.353 174.21 229.353 174.21L229.444 162.743C229.444 159.811 228.851 158.763 228.851 158.763ZM225.287 165.675C226.246 162.01 227.754 159.392 227.754 159.392L227.891 165.309L225.287 165.675Z" fill="#E8315D"/>
<path d="M198.514 51.6295C198.514 51.6295 198.331 50.3205 197.28 49.9539C197.28 49.9539 190.472 49.0637 185.447 56.3945C183.802 58.8032 182.706 64.1965 184.305 68.595C185.812 72.6793 189.65 78.7533 196.914 78.4915C200.478 78.3344 206.783 75.0879 208.062 67.6001C208.748 63.7252 208.154 57.1799 201.94 53.5145C201.94 53.5145 197.645 51.1582 194.082 52.1531C194.082 52.1531 194.219 53.0433 195.087 53.4622C195.087 53.4622 202.671 52.4149 205.732 58.4366C205.732 58.4366 209.57 65.2438 203.539 73.1505C203.539 73.1505 197.143 80.7431 188.828 74.5643C188.828 74.5643 184.579 71.8414 184.762 64.2489C184.853 61.0547 186.132 56.6563 190.792 53.6716C192.528 52.5197 194.859 51.3153 198.514 51.6295Z" fill="#E8315D"/>
<path d="M200.935 67.3906C200.935 67.3906 200.707 64.8772 197.92 64.4583C197.92 64.4583 200.387 61.9973 199.976 59.6933C199.564 57.4417 198.971 56.9181 196.503 56.4992L194.904 55.5043C194.904 55.5043 193.351 61.7879 192.254 70.1135L190.884 69.4328V70.4277C190.884 70.4277 191.386 70.7942 192.026 71.1608V72.1032C192.529 72.7316 193.442 72.9935 193.442 72.9935L193.534 71.8414C194.63 72.208 196.047 72.4175 197.646 72.1557C197.6 72.1557 201.164 71.4225 200.935 67.3906ZM195.727 59.4315C195.727 59.4315 196.092 57.8607 197.646 57.4941C197.646 57.4941 198.468 57.337 198.559 58.489C198.559 58.489 198.971 61.369 196.229 63.5158C196.138 63.5682 196.047 63.6205 195.955 63.6729C195.727 63.7776 195.316 63.9347 194.813 63.9347L195.727 59.4315ZM198.102 69.8517C197.965 70.0088 197.828 70.1135 197.646 70.2182C197.097 70.5324 195.818 71.1084 193.716 70.7942L194.585 65.4009C194.585 65.4009 197.691 64.3012 198.925 65.7674C198.925 65.7674 200.067 67.7572 198.102 69.8517Z" fill="#E8315D"/>
<path d="M160.456 155.465C160.456 155.465 160.273 154.155 159.222 153.789C159.222 153.789 152.415 152.899 147.389 160.229C145.744 162.638 144.648 168.032 146.247 172.43C147.754 176.514 151.592 182.588 158.857 182.326C162.42 182.169 168.725 178.923 170.004 171.435C170.69 167.56 170.096 161.015 163.882 157.35C163.882 157.35 159.588 154.993 156.024 155.988C156.024 155.988 156.161 156.878 157.029 157.297C157.029 157.297 164.613 156.25 167.674 162.272C167.674 162.272 171.512 169.079 165.481 176.986C165.481 176.986 159.085 184.578 150.77 178.399C150.77 178.399 146.521 175.676 146.704 168.084C146.795 164.89 148.074 160.491 152.734 157.507C154.516 156.407 156.846 155.15 160.456 155.465Z" fill="#E8315D"/>
<path d="M159.907 164.942L161.643 165.885C161.643 165.885 161.963 161.8 160.684 160.491C160.684 160.491 159.313 158.868 158.263 160.125C158.263 160.125 155.704 163.005 154.653 167.298C154.653 167.298 153.42 172.063 154.653 174.053C154.653 174.053 155.247 175.31 157.029 175.624C157.851 175.781 158.674 175.572 159.359 174.996C160.09 174.367 160.958 173.215 161.552 171.121L160.044 170.074C160.044 170.074 159.176 173.896 157.029 174.629C156.755 174.734 156.252 174.786 155.795 174.263C155.613 174.053 155.476 173.582 155.476 173.268C155.43 172.378 155.521 170.178 156.481 167.298C157.212 165.152 158.994 162.167 159.588 161.172C159.679 161.067 159.816 161.067 159.862 161.224C159.953 161.853 160.09 163.109 159.907 164.942Z" fill="#E8315D"/>
<path d="M194.722 154.522C194.722 154.522 194.539 153.213 193.488 152.846C193.488 152.846 186.681 151.956 181.655 159.287C180.01 161.696 178.914 167.089 180.513 171.487C182.021 175.572 185.858 181.646 193.123 181.384C196.686 181.227 202.991 177.98 204.271 170.493C204.956 166.618 204.362 160.072 198.148 156.407C198.148 156.407 193.854 154.051 190.29 155.046C190.29 155.046 190.427 155.936 191.295 156.355C191.295 156.355 198.879 155.307 201.94 161.329C201.94 161.329 205.778 168.136 199.747 176.043C199.747 176.043 193.351 183.636 185.036 177.457C185.036 177.457 180.787 174.734 180.97 167.141C181.061 163.947 182.34 159.549 187.001 156.564C188.782 155.464 191.112 154.208 194.722 154.522Z" fill="#E8315D"/>
<path d="M197.097 167.822L196.092 166.565H195.773V164.104C195.773 161.277 195.179 160.23 195.179 160.23C194.173 158.816 193.077 159.078 193.077 159.078C191.752 159.863 189.787 167.298 189.787 167.298L187.046 167.874C187.731 169.079 188.508 169.131 188.508 169.131L189.285 169.079L188.462 173.058C188.828 173.634 190.107 174.106 190.107 174.106L191.158 168.712L194.128 168.189L193.991 173.791C194.036 175.572 195.681 175.624 195.681 175.624L195.727 168.032L197.097 167.822ZM191.569 167.089C192.529 163.424 194.036 160.753 194.036 160.753L194.173 166.722L191.569 167.089Z" fill="#E8315D"/>
<path d="M232.414 51.6295C232.414 51.6295 232.231 50.3205 231.18 49.9539C231.18 49.9539 224.373 49.0637 219.347 56.3945C217.702 58.8032 216.606 64.1965 218.205 68.595C219.713 72.6793 223.551 78.7533 230.815 78.4915C234.379 78.3344 240.683 75.0879 241.963 67.6001C242.648 63.7252 242.054 57.1799 235.841 53.5145C235.841 53.5145 231.546 51.1582 227.982 52.1531C227.982 52.1531 228.119 53.0433 228.987 53.4622C228.987 53.4622 236.572 52.4149 239.633 58.4366C239.633 58.4366 243.47 65.2438 237.44 73.1505C237.44 73.1505 231.043 80.7431 222.728 74.5643C222.728 74.5643 218.479 71.8414 218.662 64.2489C218.753 61.0547 220.033 56.6563 224.693 53.6716C226.429 52.5197 228.759 51.3153 232.414 51.6295Z" fill="#E8315D"/>
<path d="M234.744 64.8772L233.739 63.6205H233.419V61.1595C233.419 58.3319 232.825 57.2847 232.825 57.2847C231.82 55.8709 230.723 56.1326 230.723 56.1326C229.398 56.9181 227.434 64.3536 227.434 64.3536L224.693 64.9296C225.378 66.1339 226.155 66.1863 226.155 66.1863L226.931 66.1339L226.109 70.1135C226.474 70.6895 227.754 71.1607 227.754 71.1607L228.805 65.7674L231.774 65.2437L231.637 70.8466C231.683 72.6269 233.328 72.6793 233.328 72.6793L233.373 65.0867L234.744 64.8772ZM229.216 64.1965C230.175 60.5311 231.683 57.8606 231.683 57.8606L231.82 63.83L229.216 64.1965Z" fill="#E8315D"/>
<path d="M203.95 456.026C203.95 456.026 201.072 464.404 203.95 471.839H159.816V456.026H203.95Z" fill="#DBDCF1"/>
<path d="M205.504 472.049C205.504 472.415 205.412 472.782 205.184 472.991C205.001 473.201 204.727 473.358 204.407 473.358H111.341C108.874 473.358 106.909 471.054 106.909 468.279V459.482C106.909 456.654 108.92 454.403 111.341 454.403H204.453C205.001 454.403 205.504 454.926 205.504 455.555C205.504 456.235 205.047 456.759 204.453 456.759H164.933C162.923 456.759 161.324 458.592 161.324 460.895V466.76C161.324 469.064 162.923 470.897 164.933 470.897H204.407C205.001 470.897 205.504 471.42 205.504 472.049Z" fill="#197A83"/>
<path d="M205.504 472.049C205.504 472.415 205.412 472.782 205.184 472.991C205.001 473.201 204.727 473.358 204.407 473.358H163.928C161.187 473.358 158.994 470.792 158.994 467.703V460.11C158.994 456.968 161.232 454.455 163.928 454.455H204.407C204.956 454.455 205.458 454.979 205.458 455.607C205.458 456.288 205.001 456.811 204.407 456.811H164.933C162.923 456.811 161.324 458.644 161.324 460.948V466.812C161.324 469.116 162.923 470.949 164.933 470.949H204.407C205.001 470.897 205.504 471.42 205.504 472.049Z" fill="#156468"/>
<path d="M200.432 459.744H175.807V459.953H200.432V459.744Z" fill="#373133"/>
<path d="M189.97 459.744L191.752 469.169L193.671 465.765V460.477L189.97 459.744Z" fill="#AFAFD5"/>
<path d="M199.062 462.205V469.169L195.498 466.079L191.752 469.169V462.205C191.752 460.477 189.97 459.796 189.97 459.796H197.874C199.062 460.162 199.062 461.995 199.062 462.205Z" fill="#6D68E0"/>
<path d="M199.062 462.205H191.752V462.152C191.752 460.424 189.97 459.744 189.97 459.744H197.874C199.062 460.162 199.062 461.995 199.062 462.205Z" fill="#5A5ABA"/>
<path d="M111.158 437.123C111.158 437.123 114.082 446.286 111.158 453.198H169.045V437.123H111.158Z" fill="#DBDCF1"/>
<path d="M208.885 442.254V448.328C208.885 451.68 206.509 454.402 203.585 454.402H111.25C110.793 454.402 110.427 453.984 110.427 453.46V453.408C110.427 452.884 110.793 452.465 111.25 452.465H163.745C165.847 452.465 167.537 450.528 167.537 448.119V442.464C167.537 440.055 165.847 438.118 163.745 438.118H111.25C111.021 438.118 110.793 438.013 110.656 437.856C110.473 437.646 110.382 437.385 110.427 437.123C110.473 436.599 110.839 436.233 111.295 436.233H203.585C206.509 436.18 208.885 438.903 208.885 442.254Z" fill="#F1884F"/>
<path d="M169.913 441.678V448.905C169.913 451.942 167.766 454.403 165.116 454.403H111.25C110.793 454.403 110.427 453.984 110.427 453.46V453.408C110.427 452.884 110.793 452.465 111.25 452.465H163.745C165.847 452.465 167.537 450.528 167.537 448.119V442.464C167.537 440.055 165.847 438.118 163.745 438.118H111.25C111.021 438.118 110.793 438.013 110.656 437.856C110.473 437.646 110.382 437.385 110.427 437.123C110.473 436.599 110.839 436.233 111.295 436.233H165.116C167.766 436.18 169.913 438.641 169.913 441.678Z" fill="#D37146"/>
<path d="M144.191 447.857H119.565V448.067H144.191V447.857Z" fill="#373133"/>
<path d="M138.434 447.805H135.282V452.36H138.434V447.805Z" fill="#AFAFD5"/>
<path d="M136.561 451.837V466.394L133.134 462.833L129.799 466.394V452.413L136.561 451.837Z" fill="#A82329"/>
<path d="M138.434 447.805H131.718C131.718 447.805 131.718 451.261 129.799 452.36H136.515C136.515 452.413 138.434 451.837 138.434 447.805Z" fill="#EE504F"/>
<path d="M641 540.382H0V543H641V540.382Z" fill="#373133"/>
</svg>
