<svg width="641" height="544" viewBox="0 0 641 544" fill="none" xmlns="http://www.w3.org/2000/svg">
<path d="M614.854 225.208C614.854 225.208 614.33 222.183 611.535 221.369C611.535 221.369 593.31 219.216 580.034 236.317C575.667 241.96 572.698 254.465 577.007 264.703C581.083 274.242 591.33 288.376 610.661 287.678C620.21 287.329 636.98 279.768 640.415 262.434C642.22 253.477 640.648 238.179 624.112 229.686C624.112 229.686 612.641 224.219 603.15 226.546C603.15 226.546 603.441 228.581 605.829 229.628C605.829 229.628 626.033 227.243 634.243 241.145C634.243 241.145 644.549 256.967 628.42 275.289C628.42 275.289 611.302 292.913 589.176 278.605C589.176 278.605 577.822 272.264 578.346 254.64C578.579 247.253 581.956 236.957 594.416 229.977C598.958 227.418 605.13 224.568 614.854 225.208Z" fill="#E8315D"/>
<path d="M631.856 249.172L628.304 249.579V245.973C628.304 245.624 628.246 245.333 628.071 245.042C627.605 244.17 626.441 242.483 625.043 242.774C624.694 242.832 624.461 243.181 624.461 243.53V250.219L618.231 251.034C617.881 251.092 617.765 251.441 617.94 251.732C618.289 252.197 618.988 252.895 620.21 253.709C620.56 253.942 620.909 254 621.317 254L624.461 253.767V259.933C624.461 260.398 624.577 260.806 624.868 261.155C625.567 262.085 627.081 263.714 628.071 262.085L628.362 253.128L634.825 252.255C635.116 252.197 635.233 251.906 635.058 251.673C634.418 250.917 632.962 249.23 631.856 249.172Z" fill="#E8315D"/>
<path d="M611.302 237.888C608.623 234.572 605.654 235.27 605.654 235.27C602.102 237.074 596.92 254.407 596.92 254.407L586.614 256.21C588.419 259.061 590.573 259.119 590.573 259.119L595.581 258.595L593.31 267.844C594.3 269.24 597.619 270.345 597.619 270.345L600.472 257.723L608.449 256.501L608.158 269.472C608.332 273.544 612.641 273.719 612.641 273.719L612.874 246.904C612.932 240.389 611.302 237.888 611.302 237.888ZM601.695 254C604.256 245.508 608.274 239.342 608.274 239.342L608.565 253.186L601.695 254Z" fill="#E8315D"/>
<path d="M516.626 141.448C516.626 141.448 516.102 138.423 513.307 137.551C513.307 137.551 495.024 135.399 481.632 152.558C477.207 158.2 474.238 170.822 478.605 181.059C482.68 190.657 492.986 204.791 512.376 204.093C521.925 203.744 538.81 196.183 542.304 178.733C544.109 169.717 542.537 154.361 525.884 145.81C525.884 145.81 514.414 140.285 504.806 142.611C504.806 142.611 505.097 144.647 507.543 145.694C507.543 145.694 527.806 143.309 536.074 157.269C536.074 157.269 546.38 173.207 530.251 191.587C530.251 191.587 513.074 209.27 490.832 194.903C490.832 194.903 479.42 188.505 479.944 170.822C480.177 163.377 483.612 153.023 496.13 146.043C500.672 143.6 506.902 140.75 516.626 141.448Z" fill="#E8315D"/>
<path d="M496.887 189.726H501.72L504.34 174.894L517.034 169.833C517.034 169.833 516.743 167.739 514.414 167.274C513.773 167.158 513.074 167.216 512.434 167.39L504.864 169.601L506.902 159.829L522.449 155.582C522.449 155.582 522.274 152.034 518.664 152.034C518.431 152.034 518.198 152.092 517.907 152.092L508.707 154.128L508.882 152.5L504.166 152.79L503.758 155.641C503.758 155.641 500.323 156.513 499.74 159.131C499.682 159.305 499.682 159.421 499.682 159.596V162.911L501.604 162.213C501.72 162.272 497.994 181.815 496.887 189.726Z" fill="#E8315D"/>
<path d="M616.076 204.326C615.96 185.538 610.487 171.636 599.773 162.911C581.665 148.137 554.531 153.256 554.24 153.314L553.542 149.882C554.706 149.649 582.596 144.414 601.927 160.236C613.456 169.659 619.337 184.491 619.512 204.326H616.076Z" fill="#E8315D"/>
<path d="M618.056 207.467L604.431 198.684L606.352 195.775L617.59 202.988L628.129 192.46L630.575 194.903L618.056 207.467Z" fill="#E8315D"/>
<path d="M100.718 185.887L69.7412 179.896L59.3188 177.86L28.3425 171.869C17.6871 235.212 44.4711 246.322 44.4711 246.322C42.4914 253.942 33.6993 264.994 33.6993 264.994L42.0839 266.622L52.5063 268.658L60.8908 270.287C60.8908 270.287 56.8733 256.792 57.8631 248.94C57.9213 248.94 86.9762 248.649 100.718 185.887Z" fill="#F1884F"/>
<path d="M13.3949 273.451L10.8199 286.757L74.9034 299.133L77.4784 285.827L13.3949 273.451Z" fill="#373133"/>
<path d="M21.5095 260.772L18.5035 276.305L71.6683 286.572L74.6742 271.039L21.5095 260.772Z" fill="#373133"/>
<path d="M33.2688 267.442L31.8322 274.866L58.2431 279.966L59.6797 272.542L33.2688 267.442Z" fill="white"/>
<path d="M23.9754 236.376C23.9754 236.376 28.4005 230.792 24.4994 230.036C24.4994 230.036 19.7248 228.872 18.9679 233.06C18.9679 233.06 17.687 242.425 27.2361 239.168C30.6714 238.004 34.8637 231.199 28.6335 224.626C26.3627 222.241 23.9172 220.729 17.9199 217.821C11.4568 214.738 1.55833 207.525 5.22657 192.169C5.22657 192.169 9.0695 179.489 18.8515 179.431C18.8515 179.431 26.0715 179.954 21.7628 187.865C21.7628 187.865 21.1223 188.795 20.1907 189.435C19.3755 189.959 19.0844 191.006 19.5502 191.878C20.1907 193.158 21.4716 194.379 23.8589 193.332C23.8589 193.332 28.7499 187.807 26.0715 180.885C26.0715 180.885 21.8792 172.8 11.2821 177.86C5.45949 180.652 -0.887126 189.144 0.102717 201.359C0.626752 207.409 4.12027 216.599 14.2516 221.02C14.2516 221.02 20.7147 224.161 22.8691 225.15C24.7906 226.022 28.9828 228.581 27.993 231.897C26.8284 236.085 23.9754 236.376 23.9754 236.376Z" fill="#F1884F"/>
<path d="M81.1535 247.427C81.1535 247.427 79.1738 240.564 83.0167 241.32C83.0167 241.32 87.8496 242.018 87.0344 246.206C87.0344 246.206 84.7053 255.396 77.0777 248.823C74.2828 246.438 72.9437 238.586 81.2118 234.805C84.1813 233.409 87.0344 232.944 93.6721 232.537C100.834 232.071 112.654 229.047 114.983 213.458C114.983 213.458 116.147 200.254 107.064 196.59C107.064 196.59 100.135 194.379 101.242 203.337C101.242 203.337 101.474 204.442 102.115 205.373C102.639 206.187 102.581 207.234 101.824 207.874C100.776 208.805 99.0871 209.503 97.2821 207.641C97.2821 207.641 94.7785 200.72 99.8442 195.252C99.8442 195.252 106.773 189.319 114.692 197.928C119.059 202.697 121.795 212.935 116.322 223.87C113.585 229.279 106.889 236.55 95.8265 236.841C95.8265 236.841 88.6647 237.364 86.2774 237.423C84.1813 237.481 79.2903 238.353 78.9992 241.785C78.5916 246.089 81.1535 247.427 81.1535 247.427Z" fill="#F1884F"/>
<path d="M75.0013 212.639C76.7957 203.366 70.7256 194.396 61.4434 192.603C52.1612 190.811 43.1819 196.875 41.3875 206.147C39.5931 215.42 45.6631 224.39 54.9453 226.183C64.2275 227.975 73.2069 221.911 75.0013 212.639Z" fill="#FFBBA9"/>
<path d="M59.8426 200.429L61.6477 206.827L67.8779 209.037L62.3464 212.644L62.23 219.333L56.9896 215.145L50.643 217.064L52.9721 210.841L49.1874 205.431L55.8251 205.722L59.8426 200.429Z" fill="#F1884F"/>
<path d="M75.7383 186.236C75.7383 186.236 87.9658 188.795 89.7708 177.627C89.7708 177.627 87.8494 188.446 100.135 190.948C100.135 190.948 88.1987 187.748 85.5786 200.371C85.5786 200.312 88.7227 189.61 75.7383 186.236Z" fill="white"/>
<path d="M34.5725 185.189C34.5725 185.189 43.5393 187.05 44.8785 178.849C44.8785 178.849 43.4811 186.76 52.4479 188.621C52.4479 188.621 43.6558 186.294 41.7926 195.485C41.7926 195.543 44.0634 187.632 34.5725 185.189Z" fill="white"/>
<path d="M40.0457 110.329L36.4356 101.255L27.2942 106.781L23.8006 96.6016L14.9503 102.127L11.8643 92.0065L4.3531 97.416L3.36328 96.02L12.8541 89.0981L15.9983 99.4518L24.7904 93.926L28.2258 104.163L37.309 98.6956L41.676 109.747L40.0457 110.329Z" fill="#EE504F"/>
<path d="M558.083 362.364L554.822 354.337L547.195 360.038L543.177 351.022L535.375 356.78L530.426 346.95L531.998 346.194L536.015 354.163L543.876 348.288L547.894 357.362L555.579 351.545L559.655 361.666L558.083 362.364Z" fill="#197A83"/>
<path d="M71.3714 370.624L60.8325 367.541L61.2982 365.854L69.6829 368.297L69.8576 358.816L79.4649 361.259L79.8141 351.545L90.586 353.814L90.2367 355.501L81.5028 353.697L81.1534 363.528L71.5461 361.026L71.3714 370.624Z" fill="#6D68E0"/>
<path d="M581.432 83.8631L570.893 80.7803L571.359 79.0935L579.743 81.5365L579.918 72.0553L589.525 74.4983L589.875 64.7845L600.647 67.053L600.297 68.7398L591.563 66.9367L591.214 76.7668L581.607 74.2657L581.432 83.8631Z" fill="#6D68E0"/>
<path d="M202.555 229.57L207.62 239.807L218.858 241.436L210.706 249.405L212.628 260.573L202.555 255.28L192.482 260.573L194.403 249.405L186.251 241.436L197.489 239.807L202.555 229.57Z" fill="#E8315D"/>
<path d="M465.038 273.486L471.443 286.515L485.825 288.609L475.402 298.73L477.906 313.039L465.038 306.292L452.17 313.039L454.615 298.73L444.193 288.609L458.575 286.515L465.038 273.486Z" fill="#F1884F"/>
<path d="M404.806 346.587L403.084 346.879L426.377 484.166L428.099 483.874L404.806 346.587Z" fill="#373133"/>
<path d="M392.34 460.287L390.617 460.577L400.515 519.311L402.237 519.022L392.34 460.287Z" fill="#373133"/>
<path d="M244.45 484.137L242.727 484.427L252.625 543.162L254.347 542.872L244.45 484.137Z" fill="#373133"/>
<path d="M332.904 470.137L331.183 470.432L337.584 507.635L339.306 507.339L332.904 470.137Z" fill="#373133"/>
<path d="M246.515 145.403L242.731 175.068L223.691 167.739L200.633 158.84C195.917 157.037 193.006 152.383 193.413 147.323L197.489 95.4964C195.102 92.1809 194.636 83.2232 194.636 83.2232L223.866 81.071C223.866 88.5745 215.364 94.5657 215.364 94.5657L218.159 137.9L229.688 140.983L246.515 145.403Z" fill="#FCBB9D"/>
<path d="M421.369 147.73L402.853 155.99L385.268 163.842L380.552 134.177L393.071 130.687L397.496 129.466L392.43 77.6393C392.43 77.6393 382.881 73.3931 381.425 65.8896L409.723 63.0394C409.723 63.0394 412.111 70.5429 411.121 77.1739L427.133 135.399C428.53 140.401 426.085 145.636 421.369 147.73Z" fill="#FCBB9D"/>
<path d="M246.515 145.403L242.731 175.068L223.749 167.739L229.746 140.924L246.515 145.403Z" fill="#E6A68A"/>
<path d="M402.852 155.99L385.21 163.842L380.494 134.177L393.07 130.745L402.852 155.99Z" fill="#E6A68A"/>
<path d="M194.403 398.718L191.201 422.101L177.75 416.459L169.715 413.085L172.859 390.226L187.765 396.101L194.403 398.718Z" fill="#FCBB9D"/>
<path d="M183.049 393.367C183.049 393.367 172.277 401.917 174.315 415.354C174.315 415.354 153.121 435.131 147.939 438.562C144.562 440.773 140.369 437.515 141.65 433.676L159.817 385.166C160.748 382.432 164.009 381.268 166.455 382.839L183.049 393.367Z" fill="#4F216C"/>
<path d="M280.927 394.414L277.725 417.797L266.254 412.969L256.239 408.781L259.383 385.98L275.279 392.204L280.927 394.414Z" fill="#FCBB9D"/>
<path d="M194.403 398.718L191.201 422.101L177.75 416.459L187.765 396.101L194.403 398.718Z" fill="#E6A68A"/>
<path d="M280.927 394.414L277.725 417.797L266.254 412.969L275.279 392.204L280.927 394.414Z" fill="#E6A68A"/>
<path d="M269.573 389.063C269.573 389.063 258.801 397.613 260.839 411.05C260.839 411.05 239.645 430.826 234.463 434.258C231.086 436.468 226.893 433.211 228.174 429.372L246.341 380.861C247.272 378.127 250.533 376.964 252.979 378.535L269.573 389.063Z" fill="#311547"/>
<path d="M379.679 270.287L391.498 425.766C392.43 438.33 381.717 448.625 369.256 447.171L273.183 436.177L289.137 397.206L341.424 399.416L314.815 287.853L379.679 270.287Z" fill="#311547"/>
<path d="M374.904 275.522L317.842 453.802C314.756 463.516 304.625 469.1 294.727 466.54L179.09 436.643L190.851 396.275L276.211 409.072L291.408 295.124L374.904 275.522Z" fill="#4F216C"/>
<path d="M118.767 84.7356L114.692 38.7259C114.342 34.8288 117.254 31.3387 121.155 30.9897L469.638 0.161499L545.215 23.5445L479.012 58.2117L474.995 60.3057L126.511 91.1339C122.552 91.5411 119.059 88.6327 118.767 84.7356Z" fill="#F1884F"/>
<path d="M474.82 60.422L469.463 0.219727H469.58L512.783 13.598L545.157 23.6027L516.51 38.6096L515.112 39.3658L474.936 60.3639L474.82 60.422Z" fill="#FCBB9D"/>
<path d="M515.112 39.3657L512.783 13.5979L545.157 23.6026L515.112 39.3657Z" fill="#373133"/>
<path d="M205.291 84.2121L202.671 54.14L476.392 29.7101L478.896 58.2698L474.936 60.3638L205.291 84.2121Z" fill="#D87245"/>
<path d="M474.82 60.422L472.083 30.0591L515.578 26.2202L516.51 38.6096L515.112 39.3658L474.936 60.3639L474.82 60.422Z" fill="#DBA18A"/>
<path d="M515.112 39.3658L513.948 26.3946L545.157 23.6027L515.112 39.3658Z" fill="#161415"/>
<path d="M118.767 84.7356L114.692 38.7259C114.342 34.8288 117.254 31.3388 121.155 30.9898L163.077 27.2671L168.434 87.4113L126.511 91.1339C122.552 91.5411 119.059 88.6328 118.767 84.7356Z" fill="#EE504F"/>
<path d="M203.178 23.7508L161.825 27.4086L167.16 87.6079L208.514 83.9501L203.178 23.7508Z" fill="#373133"/>
<path d="M118.768 84.7356L116.73 61.8761L165.756 57.5136L168.434 87.4694L126.512 91.192C122.552 91.541 119.059 88.6327 118.768 84.7356Z" fill="#CE4646"/>
<path d="M205.86 53.9961L164.506 57.6539L167.161 87.6087L208.515 83.9509L205.86 53.9961Z" fill="#161415"/>
<path d="M336.417 139.47L340.492 150.289L309.924 155.99C309.458 155.699 305.499 120.566 305.499 120.566C305.499 120.566 296.59 117.832 294.843 110.271C294.377 108.351 294.668 106.374 297.172 104.221L295.949 91.3666L334.844 83.456C334.844 83.456 357.145 129.058 333.563 132.258L333.622 132.432L336.417 139.47Z" fill="#FCBB9D"/>
<path d="M306.43 110.154C306.43 110.154 302.82 99.5099 295.6 106.025C295.6 106.025 288.846 101.837 293.795 96.8924C293.795 96.8924 285.061 85.2009 298.569 81.2456C298.569 81.2456 294.785 72.4625 331.584 65.8315C331.584 65.8315 337.057 65.4825 338.396 73.9748C338.396 73.9748 338.629 79.0934 334.67 81.0711C334.67 81.0711 340.55 84.6192 336.125 88.2837C331.7 91.9482 316.503 89.5052 316.503 89.5052C316.503 89.5052 320.754 91.0176 319.939 92.7626C319.123 94.5076 306.954 93.4024 306.954 93.4024L309.574 110.329L306.43 110.154Z" fill="#373133"/>
<path d="M337.698 142.437C337.698 142.437 341.482 161.748 306.605 144.298L271.262 147.148L235.802 141.448L232.483 179.605L277.841 190.948C277.841 190.948 289.137 236.143 289.137 256.85C289.137 277.558 283.023 306.757 283.023 306.757C283.023 306.757 362.676 309.607 390.043 272.381C390.043 272.381 372.575 243.646 370.246 228.116C367.917 212.586 364.598 176.755 364.598 176.755L394.351 168.263L387.539 130.978L337.698 142.437Z" fill="#5B822B"/>
<path d="M273.864 177.338L272.208 177.895L279.606 199.834L281.261 199.277L273.864 177.338Z" fill="#373133"/>
<path d="M364.515 167.915L362.772 168.037L363.995 185.503L365.738 185.381L364.515 167.915Z" fill="#373133"/>
<path d="M336.417 139.47C321.977 137.202 317.959 125.568 317.843 125.161C322.442 130.571 328.498 132.199 333.738 132.374L336.417 139.47Z" fill="#E6A68A"/>
<path d="M333.563 117.6L342.297 114.691C342.297 114.691 343.462 122.835 333.563 117.6Z" fill="white"/>
</svg>
