<svg width="522" height="476" viewBox="0 0 522 476" fill="none" xmlns="http://www.w3.org/2000/svg">
<path d="M22.5854 236.228C22.5854 236.228 18.6316 293.217 87.5276 283.719L91.4815 293.217C91.4815 293.217 111.023 255.77 78.8021 249.68C72.3942 248.453 52.6707 248.907 52.6707 248.907L22.5854 236.228Z" fill="#5CC2AD"/>
<path d="M32.8563 342.299C32.8563 342.299 24.9488 347.07 10.6788 367.612L5.13428 356.523L24.1306 335.936L32.8563 342.299Z" fill="black"/>
<path d="M10.6787 367.657C10.6787 367.657 -5.13657 351.024 3.54359 335.982C3.54359 335.982 11.4511 322.53 25.7211 324.12C25.7211 324.12 50.262 297.216 80.3472 313.849C80.3472 313.849 86.6641 349.479 26.4938 346.298C26.5392 346.298 6.7249 346.298 10.6787 367.657Z" fill="#5CC2AD"/>
<path d="M10.0423 367.794C6.72475 352.842 11.0421 341.617 15.2686 334.845C19.8586 327.483 25.1304 323.711 25.3577 323.575L26.1303 324.711C26.0849 324.756 20.813 328.528 16.4047 335.663C12.3146 342.208 8.1792 353.115 11.3604 367.566L10.0423 367.794Z" fill="#17311D"/>
<path d="M110.069 322.121C110.069 322.121 115.613 303.897 133.019 305.487C133.019 305.487 142.608 291.445 160.741 303.897C167.103 308.26 172.602 313.395 170.239 333.209C170.239 333.209 164.286 323.302 148.88 322.939C138.336 322.666 110.069 322.121 110.069 322.121Z" fill="#5CC2AD"/>
<path d="M169.557 333.437C164.513 318.349 154.788 311.804 147.471 308.987C139.563 305.896 132.792 306.396 132.701 306.442L132.61 305.078C132.883 305.033 139.79 304.533 147.971 307.714C155.56 310.668 165.649 317.44 170.876 333.028L169.557 333.437Z" fill="#17311D"/>
<path d="M94.6173 359.75H68.4859C62.896 359.75 58.0334 362.522 54.7159 365.112C51.9437 367.248 50.262 369.248 50.262 369.248C49.7167 362.84 52.4435 356.75 56.2155 352.524C58.0333 350.479 60.0784 348.888 62.1234 347.843C86.8006 335.527 94.6173 359.75 94.6173 359.75Z" fill="#197A83"/>
<path d="M84.3011 359.841C81.3017 344.253 69.4856 345.616 68.9857 345.707L68.8495 344.798C68.9858 344.798 81.9833 343.207 85.1645 359.659L84.3011 359.841Z" fill="#020403"/>
<path d="M85.462 357.442L83.2204 357.814L90.4351 401.212L92.6767 400.839L85.462 357.442Z" fill="#22452A"/>
<path d="M98.1166 401.878L95.8898 401.56C99.2982 377.792 98.5711 364.34 97.4804 354.342C93.7538 321.166 77.0296 314.986 76.8478 314.895L77.575 312.759C78.3021 313.031 95.7989 319.485 99.7072 354.069C100.843 364.203 101.525 377.837 98.1166 401.878Z" fill="#5CC2AD"/>
<path d="M97.8439 356.069C94.7081 316.031 89.2091 283.855 89.1637 283.537L91.3905 283.128C91.4359 283.446 96.9804 315.713 100.116 355.887L97.8439 356.069Z" fill="#5CC2AD"/>
<path d="M107.978 403.923L105.751 403.469C119.022 340.981 119.203 317.621 119.203 317.394H121.476C121.476 317.621 121.339 341.208 107.978 403.923Z" fill="#5CC2AD"/>
<path d="M91.1633 292.944C91.1178 292.672 87.0277 267.086 69.3947 258.633C64.5775 256.315 50.5348 249.18 50.3984 249.134L51.0346 247.907C51.171 247.998 65.2137 255.088 70.0309 257.406C88.3456 266.177 92.5267 292.49 92.5721 292.762L91.1633 292.944Z" fill="#17311D"/>
<path d="M54.7159 365.112C51.9437 367.248 50.262 369.248 50.262 369.248C49.7167 362.84 52.4435 356.75 56.2155 352.524C55.4429 355.569 54.3977 360.613 54.7159 365.112Z" fill="#020403"/>
<path d="M60.9417 397.333H136.973L125.884 475.728H72.0307L60.9417 397.333Z" fill="#4F216C"/>
<path d="M482.862 269.358C482.862 269.358 494.996 316.076 436.325 318.894L434.507 327.392C434.507 327.392 412.466 299.352 438.279 289.263C443.415 287.264 459.866 284.537 459.866 284.537L482.862 269.358Z" fill="#5CC2AD"/>
<path d="M494.268 364.567C494.268 364.567 502.04 365.067 520.718 375.065L520.582 364.612L498.359 356.478L494.268 364.567Z" fill="black"/>
<path d="M520.718 375.065C520.718 375.065 526.217 356.478 513.856 348.525C513.856 348.525 502.722 341.48 492.633 348.161C492.633 348.161 463.82 337.39 447.596 361.522C447.596 361.522 456.594 390.744 500.586 365.112C500.586 365.112 515.446 357.477 520.718 375.065Z" fill="#5CC2AD"/>
<path d="M520.036 375.247C513.992 352.115 492.723 348.843 492.496 348.843L492.678 347.479C492.905 347.525 498.359 348.297 504.63 352.069C510.447 355.569 518.037 362.34 521.354 374.883L520.036 375.247Z" fill="#17311D"/>
<path d="M419.919 345.98C419.919 345.98 415.238 330.573 400.514 331.937C400.514 331.937 392.424 320.075 377.109 330.619C371.746 334.3 367.065 338.663 369.065 355.387C369.065 355.387 374.064 347.025 387.107 346.707C396.014 346.389 419.919 345.98 419.919 345.98Z" fill="#5CC2AD"/>
<path d="M369.747 355.569L368.474 355.16C372.882 341.935 381.472 336.209 387.88 333.709C394.833 331.028 400.65 331.437 400.923 331.482L400.832 332.846C400.786 332.846 395.015 332.437 388.334 335.027C379.336 338.436 373.11 345.389 369.747 355.569Z" fill="#17311D"/>
<path d="M439.824 413.376C437.37 398.106 436.961 387.335 438.506 377.292C440.188 366.021 446.914 359.295 452.231 355.614C457.957 351.66 463.229 350.388 463.456 350.297L464.002 352.524C463.82 352.569 443.778 357.614 440.779 377.61C439.325 387.381 439.688 397.97 442.097 412.967L439.824 413.376Z" fill="#5CC2AD"/>
<path d="M431.644 415.239C426.463 384.836 427.781 359.477 429.826 343.616C432.008 326.347 435.416 316.485 435.552 316.076L437.688 316.803C437.552 317.212 424.055 357.25 433.916 414.876L431.644 415.239Z" fill="#5CC2AD"/>
<path d="M421.464 415.103C410.194 362.113 410.057 342.162 410.057 341.98H412.33C412.33 342.162 412.466 361.931 423.691 414.648L421.464 415.103Z" fill="#5CC2AD"/>
<path d="M434.825 327.256L433.462 327.029C433.507 326.847 436.825 307.351 448.459 294.853C451.549 291.535 460.639 283.764 461.002 283.446L461.866 284.491C461.775 284.582 452.458 292.535 449.413 295.807C438.097 307.987 434.825 327.029 434.825 327.256Z" fill="#17311D"/>
<path d="M461.366 409.513H397.151L406.558 475.728H452.004L461.366 409.513Z" fill="#4F216C"/>
<path d="M437.779 469.956L411.921 475.5C409.739 475.955 407.558 474.592 407.058 472.365L364.975 276.629L372.973 232.047L397.378 267.222L398.832 269.358L440.915 465.093C441.369 467.32 440.006 469.456 437.779 469.956Z" fill="#F1884F"/>
<path d="M398.877 269.403L365.02 276.675V276.629L369.565 251.134L372.973 232.047L383.517 247.271L384.062 247.998L398.832 269.358L398.877 269.403Z" fill="#FCBB9D"/>
<path d="M384.062 247.998L369.565 251.134L372.973 232.047L384.062 247.998Z" fill="#373133"/>
<path d="M431.417 420.829L414.466 424.419L381.29 270.676L397.378 267.222L398.832 269.358L431.417 420.829Z" fill="#D87245"/>
<path d="M398.877 269.403L381.79 273.084L376.563 248.68L383.517 247.271L384.062 247.998L398.832 269.358L398.877 269.403Z" fill="#DBA18A"/>
<path d="M384.062 247.998L376.745 249.589L372.973 232.047L384.062 247.998Z" fill="#161415"/>
<path d="M437.779 469.956L411.921 475.5C409.739 475.955 407.558 474.592 407.058 472.365L402.013 448.824L435.87 441.552L440.915 465.093C441.369 467.32 440.006 469.456 437.779 469.956Z" fill="#EE504F"/>
<path d="M431.093 419.07L397.235 426.346L402.229 449.584L436.087 442.308L431.093 419.07Z" fill="#373133"/>
<path d="M437.779 469.956L424.918 472.728L419.01 445.188L435.87 441.552L440.915 465.093C441.369 467.32 440.006 469.456 437.779 469.956Z" fill="#CE4646"/>
<path d="M431.062 419.084L414.222 422.703L419.216 445.941L436.056 442.322L431.062 419.084Z" fill="#161415"/>
<path d="M404.831 345.934C404.831 345.934 396.333 360.75 404.831 372.929H224.683V345.934H404.831Z" fill="#DBDCF1"/>
<path d="M407.739 373.929C407.739 374.611 407.467 375.201 407.012 375.656C406.558 376.11 405.967 376.383 405.285 376.383H137.291C132.428 376.383 128.52 372.429 128.52 367.612V352.388C128.52 347.525 132.474 343.616 137.291 343.616H405.285C406.649 343.616 407.739 344.707 407.739 346.071C407.739 347.434 406.649 348.479 405.285 348.479H238.817C235.545 348.479 232.909 351.115 232.909 354.387V365.703C232.909 368.975 235.545 371.611 238.817 371.611H405.285C406.649 371.475 407.739 372.565 407.739 373.929Z" fill="#EE504F"/>
<path d="M407.694 373.474C407.83 374.338 407.558 375.11 407.012 375.656C406.558 376.11 405.967 376.383 405.285 376.383H237.227C231.682 376.383 227.137 371.884 227.137 366.294V353.615C227.137 348.07 231.637 343.526 237.227 343.526H405.149C406.422 343.526 407.558 344.434 407.694 345.707C407.83 347.161 406.694 348.388 405.285 348.388H238.817C235.545 348.388 232.909 351.024 232.909 354.296V365.612C232.909 368.884 235.545 371.52 238.817 371.52H405.194C406.421 371.475 407.467 372.293 407.694 373.474Z" fill="#D34848"/>
<path d="M403.74 429.282C403.74 429.282 394.878 451.778 403.74 471.592H268.312V429.282H403.74Z" fill="#DBDCF1"/>
<path d="M408.558 472.228C408.603 473.228 408.239 474.137 407.603 474.773C407.012 475.364 406.194 475.728 405.285 475.728H119.522C111.978 475.728 105.888 469.638 105.888 462.094V438.553C105.888 431.009 111.978 424.919 119.522 424.919H405.285C407.012 424.919 408.512 426.237 408.558 427.964C408.603 429.736 407.194 431.236 405.422 431.236H284.036C277.901 431.236 272.947 436.19 272.947 442.325V458.049C272.947 464.184 277.901 469.138 284.036 469.138H405.194C406.921 469.183 408.467 470.501 408.558 472.228Z" fill="#197A83"/>
<path d="M408.558 472.228C408.603 473.228 408.239 474.137 407.603 474.773C407.012 475.364 406.194 475.728 405.285 475.728H281.036C272.629 475.728 265.812 468.911 265.812 460.503V440.098C265.812 431.691 272.629 424.874 281.036 424.874H405.285C407.012 424.874 408.512 426.192 408.558 427.919C408.603 429.691 407.194 431.191 405.422 431.191H284.036C277.901 431.191 272.947 436.144 272.947 442.28V458.004C272.947 464.139 277.901 469.093 284.036 469.093H405.194C406.921 469.183 408.467 470.501 408.558 472.228Z" fill="#156468"/>
<path d="M392.97 439.28H317.439V439.825H392.97V439.28Z" fill="#373133"/>
<path d="M360.839 439.28L366.384 464.593L372.155 455.413V441.189L360.839 439.28Z" fill="#AFAFD5"/>
<path d="M388.834 445.87C388.834 445.915 388.834 445.915 388.834 445.915V464.503L377.836 456.231L366.384 464.503V445.779C366.384 441.189 360.885 439.28 360.885 439.28H385.153C388.789 440.371 388.834 445.324 388.834 445.87Z" fill="#6D68E0"/>
<path d="M388.834 445.87H366.384V445.779C366.384 441.189 360.885 439.28 360.885 439.28H385.153C388.789 440.371 388.834 445.324 388.834 445.87Z" fill="#5A5ABA"/>
<path d="M119.067 378.746C119.067 378.746 128.065 403.287 119.067 421.783H296.761V378.746H119.067Z" fill="#DBDCF1"/>
<path d="M418.919 392.425V408.65C418.919 417.648 411.648 424.919 402.65 424.919H119.294C117.886 424.919 116.749 423.783 116.749 422.374V422.238C116.749 420.829 117.886 419.693 119.294 419.693H280.355C286.808 419.693 292.034 414.467 292.034 408.013V392.925C292.034 386.472 286.808 381.246 280.355 381.246H119.294C118.567 381.246 117.931 380.973 117.477 380.473C116.977 379.973 116.704 379.246 116.749 378.473C116.84 377.11 118.022 376.11 119.385 376.11H402.65C411.648 376.156 418.919 383.472 418.919 392.425Z" fill="#F1884F"/>
<path d="M299.26 390.88V410.24C299.26 418.329 292.67 424.919 284.581 424.919H119.294C117.886 424.919 116.749 423.783 116.749 422.374V422.238C116.749 420.829 117.886 419.693 119.294 419.693H280.355C286.808 419.693 292.034 414.467 292.034 408.013V392.925C292.034 386.472 286.808 381.246 280.355 381.246H119.294C118.567 381.246 117.931 380.973 117.477 380.473C116.977 379.973 116.704 379.246 116.749 378.473C116.84 377.11 118.022 376.11 119.385 376.11H284.536C292.67 376.156 299.26 382.745 299.26 390.88Z" fill="#D37146"/>
<path d="M210.731 407.468H135.201V408.013H210.731V407.468Z" fill="#373133"/>
<path d="M166.74 407.332H157.06V419.602H166.74V407.332Z" fill="#AFAFD5"/>
<path d="M161.059 418.102V457.049L150.47 447.506L140.381 457.049V419.602L161.059 418.102Z" fill="#A82329"/>
<path d="M166.74 407.332H146.198C146.198 407.332 146.198 416.512 140.381 419.602H160.923C160.923 419.602 166.74 418.102 166.74 407.332Z" fill="#EE504F"/>
<path d="M365.247 296.444C365.247 296.444 358.203 316.213 365.247 337.89H187.054V297.216L365.247 296.444Z" fill="#DBDCF1"/>
<path d="M195.325 290.763H365.475C367.429 290.763 369.02 292.353 369.02 294.308C369.02 296.262 367.429 297.852 365.475 297.852H196.961C192.099 297.852 188.145 301.806 188.145 306.669V327.392C188.145 332.255 192.099 336.209 196.961 336.209H365.475C367.429 336.209 369.02 337.799 369.02 339.754V339.981C369.02 341.935 367.429 343.526 365.475 343.526H195.325C188.281 343.526 182.555 337.799 182.555 330.755V303.579C182.555 296.489 188.281 290.763 195.325 290.763Z" fill="#6D68E0"/>
<path d="M342.434 324.12H266.903V324.666H342.434V324.12Z" fill="#373133"/>
<path d="M317.893 324.12H309.94V336.3H317.893V324.12Z" fill="#AFAFD5"/>
<path d="M315.394 334.754V366.476L324.846 357.068L334.481 366.476V336.3L315.394 334.754Z" fill="#156468"/>
<path d="M309.94 324.12H328.709C328.709 324.12 328.709 333.255 334.481 336.3H315.711C315.711 336.3 309.94 334.755 309.94 324.12Z" fill="#197A83"/>
<path d="M336.026 23.3137L331.254 42.6282C331.254 42.6282 349.296 59.3523 382.199 54.3078L385.698 35.0388L336.026 23.3137Z" fill="#373133"/>
<path d="M357.749 39.538L316.211 18.6328L317.302 16.2697L405.604 37.1293L405.24 39.538H357.749Z" fill="#564F51"/>
<path d="M317.348 16.3151L363.884 18.7237L405.558 37.0838H358.522L317.348 16.3151Z" fill="#373133"/>
<path d="M383.79 61.6246H381.745V37.6746L362.566 25.7224L363.657 23.9954L383.79 36.5385V61.6246Z" fill="#F1884F"/>
<path d="M358.476 22.723C358.476 22.723 358.113 22.8593 357.794 23.1774C357.158 23.7228 357.204 24.7226 357.885 25.2225C358.794 25.8587 360.476 26.7222 363.384 26.7677C364.202 26.7677 364.839 26.0405 364.702 25.2679C364.657 24.9953 364.566 24.7226 364.43 24.4954L358.476 22.723Z" fill="#F1884F"/>
<path d="M364.432 24.8853C364.61 24.2055 363.337 23.2831 361.589 22.825C359.841 22.3669 358.28 22.5465 358.102 23.2263C357.923 23.9061 359.196 24.8287 360.944 25.2868C362.692 25.7449 364.254 25.5651 364.432 24.8853Z" fill="#564F51"/>
<path d="M382.79 61.2156C383.562 61.2156 384.244 61.8518 384.244 62.6699L384.289 64.8967L385.335 73.1224H380.336L381.381 64.8967L381.426 62.6699C381.381 61.8518 382.017 61.2156 382.79 61.2156Z" fill="#F1884F"/>
<path d="M78.7111 196.69C91.5116 196.69 101.889 186.313 101.889 173.512C101.889 160.712 91.5116 150.335 78.7111 150.335C65.9106 150.335 55.5337 160.712 55.5337 173.512C55.5337 186.313 65.9106 196.69 78.7111 196.69Z" fill="#DBDCF1"/>
<path d="M70.0764 161.287V185.737L91.2997 173.603L70.0764 161.287Z" fill="#EE504F"/>
<path d="M188.145 36.5386C188.145 23.8591 177.829 13.5884 165.149 13.6338C152.515 13.6793 142.154 24.1773 142.29 36.8112C142.335 43.5827 145.335 49.627 150.061 53.808C150.788 54.4442 151.425 55.0805 152.016 55.8076C153.879 58.1254 156.196 62.17 156.196 68.0326H162.877H167.512H174.193C174.193 61.8519 176.783 57.6709 178.692 55.444C179.192 54.8987 179.692 54.3533 180.283 53.8534C185.1 49.627 188.145 43.4463 188.145 36.5386Z" fill="#F1884F"/>
<path d="M176.238 44.4007C175.465 43.1282 173.693 41.2649 170.194 43.1282C169.921 42.9464 169.376 42.7192 168.694 42.5374C167.421 42.2193 166.194 42.4011 165.013 42.9919C164.695 42.8555 164.286 42.6738 163.74 42.5374C162.422 42.2193 161.15 42.4011 159.968 43.0373C156.605 41.3104 154.878 43.1282 154.106 44.4007C153.56 45.3096 153.56 47.082 154.015 49.7633C154.379 51.8084 155.06 54.3988 156.06 57.4437C157.696 62.6245 159.605 67.3963 159.65 67.4418L160.514 67.0782C160.514 67.0328 158.605 62.2609 156.969 57.1256C154.151 48.2182 154.469 45.6277 154.924 44.8552C155.878 43.2646 157.287 42.8555 159.15 43.6736C158.968 43.8554 158.832 44.0826 158.696 44.4007C158.423 45.0369 158.241 45.855 158.241 46.7184C158.241 47.5819 158.378 48.4454 158.696 49.0362C159.014 49.7633 159.514 50.2178 160.105 50.2178C160.695 50.2178 161.15 49.8088 161.514 49.0362C161.786 48.3999 161.968 47.5819 161.968 46.7184C161.968 45.855 161.832 44.9915 161.514 44.4007C161.377 44.0826 161.195 43.8099 161.014 43.6281C162.377 43.0828 163.559 43.4009 164.286 43.6736C164.104 43.8554 163.968 44.0826 163.831 44.4007C163.559 45.0369 163.377 45.855 163.377 46.7184C163.377 47.5819 163.513 48.4454 163.831 49.0362C164.149 49.7633 164.649 50.2178 165.24 50.2178C165.785 50.2178 166.285 49.8088 166.649 49.0362C166.921 48.3999 167.103 47.5819 167.103 46.7184C167.103 45.855 166.967 44.9915 166.649 44.4007C166.512 44.0371 166.285 43.7645 166.104 43.5827C167.422 43.1282 168.603 43.4009 169.33 43.719C169.148 43.9008 169.012 44.128 168.876 44.4007C168.603 45.0369 168.421 45.855 168.421 46.7184C168.421 47.5819 168.558 48.4454 168.876 49.0362C169.194 49.7633 169.694 50.2178 170.284 50.2178C170.875 50.2178 171.33 49.8088 171.693 49.0362C171.966 48.3999 172.148 47.5819 172.148 46.7184C172.148 45.855 172.011 44.9915 171.693 44.4007C171.557 44.128 171.421 43.9008 171.284 43.719C173.193 42.8555 174.602 43.2646 175.556 44.9006C176.011 45.6732 176.329 48.2636 173.511 57.171C171.875 62.3064 169.967 67.0782 169.967 67.1237L170.83 67.4872C170.83 67.4418 172.784 62.6245 174.42 57.4891C175.374 54.4442 176.056 51.8538 176.42 49.8088C176.829 47.082 176.783 45.3096 176.238 44.4007ZM160.15 49.3089C159.832 49.3089 159.241 48.3999 159.241 46.7184C159.241 45.0369 159.832 44.128 160.15 44.128C160.468 44.128 161.059 45.0369 161.059 46.7184C161.059 48.3999 160.468 49.3089 160.15 49.3089ZM166.149 46.7184C166.149 48.3999 165.558 49.3089 165.24 49.3089C164.922 49.3089 164.331 48.3999 164.331 46.7184C164.331 45.0369 164.922 44.128 165.24 44.128C165.558 44.128 166.149 45.0369 166.149 46.7184ZM170.194 49.3089C169.876 49.3089 169.285 48.3999 169.285 46.7184C169.285 45.0369 169.876 44.128 170.194 44.128C170.512 44.128 171.103 45.0369 171.103 46.7184C171.103 48.3999 170.512 49.3089 170.194 49.3089Z" fill="white"/>
<path d="M161.195 75.6221V77.0309C161.195 79.3032 163.013 81.121 165.286 81.121C167.558 81.121 169.376 79.3032 169.376 77.0309V75.6221H161.195Z" fill="#373133"/>
<path d="M174.602 66.8055H155.969V75.7584H174.602V66.8055Z" fill="#AFAFD5"/>
<path d="M157.196 78.1671H173.284C174.42 78.1671 175.375 77.2127 175.375 76.0765C175.375 74.9404 174.42 73.986 173.284 73.986H157.196C156.06 73.986 155.106 74.9404 155.106 76.0765C155.106 77.2127 156.06 78.1671 157.196 78.1671Z" fill="#DBDCF1"/>
<path d="M156.106 67.8508H174.375C175.511 67.8508 176.465 66.8965 176.465 65.7603C176.465 64.6242 175.511 63.6698 174.375 63.6698H156.106C154.969 63.6698 154.015 64.6242 154.015 65.7603C154.061 66.9419 154.969 67.8508 156.106 67.8508Z" fill="#DBDCF1"/>
<path d="M156.106 73.0316H174.375C175.511 73.0316 176.465 72.0772 176.465 70.9411C176.465 69.805 175.511 68.8506 174.375 68.8506H156.106C154.969 68.8506 154.015 69.805 154.015 70.9411C154.061 72.0772 154.969 73.0316 156.106 73.0316Z" fill="#DBDCF1"/>
<path d="M118.704 106.525L117.204 99.0266L109.387 102.026L108.115 93.7094L100.571 96.7543L99.5708 88.5286L93.0721 91.7098L92.4814 90.4828L100.707 86.4835L101.707 94.8456L109.205 91.8007L110.478 100.163L118.204 97.1633L120.021 106.252L118.704 106.525Z" fill="#EE504F"/>
<path d="M407.149 118.886L399.286 115.433L399.832 114.206L406.24 116.978L408.058 109.57L414.965 112.978L416.692 105.707L424.236 109.752L423.6 110.933L417.601 107.752L415.92 114.978L408.967 111.524L407.149 118.886Z" fill="#197A83"/>
<path d="M255.268 16.5423L254.087 15.8606L257.541 9.90721L250.315 7.58947L254.314 0L255.541 0.636243L252.314 6.77144L259.586 9.13463L255.268 16.5423Z" fill="#6D68E0"/>
<path d="M410.784 168.741L412.602 162.924L416.738 164.287L418.283 161.424L432.053 165.832L431.962 168.877L454.549 176.103L452.595 182.147L410.784 168.741Z" fill="#F1884F"/>
<path d="M409.376 166.014L404.604 192.1L444.005 204.734L455.321 180.784L409.376 166.014Z" fill="#FFB392"/>
<path d="M323.801 143.064C320.529 128.43 309.44 122.931 301.987 120.295C291.489 116.569 286.717 107.934 286.717 107.934C284.036 102.844 281.991 99.3902 280.127 96.9361C286.899 96.1181 289.535 91.528 289.535 91.528C287.171 93.1641 284.627 93.9367 282.354 94.2548C285.763 93.0278 288.171 89.8011 288.171 85.9836C288.171 81.1209 284.218 77.2126 279.4 77.2126C274.538 77.2126 270.629 81.1664 270.629 85.9836C270.629 87.4379 270.993 88.7558 271.583 89.9829C259.268 83.9386 247.406 89.5739 242.816 95.2546C232 108.661 247.679 126.158 247.679 126.158L247.361 134.293C231.091 152.516 244.452 167.786 244.452 167.786C263.176 180.193 291.035 176.239 305.168 173.058C312.121 171.513 318.029 166.877 321.165 160.515C323.483 155.652 325.255 149.517 323.801 143.064Z" fill="#373133"/>
<path d="M259.54 139.155V138.974C259.54 138.974 241.635 150.017 243.907 111.297C243.907 111.297 245.361 103.344 250.906 100.708C250.906 100.708 258.722 113.842 273.992 116.16C273.992 116.16 278.537 109.343 282.127 114.842C282.127 114.842 284.717 120.386 279.855 124.613L285.399 160.606L258.222 160.788L259.177 144.7L259.54 139.155Z" fill="#FCBB9D"/>
<path d="M218.321 403.105H197.825L194.871 392.107L192.462 383.064H213.458L214.958 389.153L218.321 403.105Z" fill="#FCBB9D"/>
<path d="M260.676 380.473L258.904 398.061L257.495 412.24L239.499 413.331L239.181 399.879L238.726 380.473H260.676Z" fill="#FCBB9D"/>
<path d="M214.958 389.153L194.871 392.107L192.462 383.064H213.458L214.958 389.153Z" fill="#E6A68A"/>
<path d="M260.676 380.473L258.904 398.061L239.181 399.879L238.726 380.473H260.676Z" fill="#E6A68A"/>
<path d="M258.722 146.927L237.227 155.47C232.137 158.243 228.228 162.787 226.229 168.241L210.641 210.596H234.454L229.41 259.133L306.713 267.585L305.713 202.052H328.845L321.847 171.24C320.165 163.787 314.984 157.606 307.986 154.562L283.99 144.245C283.99 144.2 264.403 165.332 258.722 146.927Z" fill="#5B822B"/>
<path d="M239.817 294.808L197.825 289.945L217.185 384.972H185.464L150.016 271.403C150.016 271.403 147.016 265.404 151.743 258.087C155.424 252.316 161.923 248.953 168.785 248.953H252.996L239.817 294.808Z" fill="#311547"/>
<path d="M306.986 264.541C306.986 264.541 303.259 243.317 242.453 247.453C242.453 247.453 230.728 246.953 230.728 280.628V391.471H263.903L270.72 294.762C270.765 294.808 305.532 298.716 306.986 264.541Z" fill="#4F216C"/>
<path d="M216.821 393.743C216.821 393.743 207.959 402.151 196.416 398.742C196.416 398.742 176.42 415.012 172.784 419.193C170.421 421.874 172.83 426.01 176.329 425.328L221.275 415.194C223.82 414.694 225.229 411.967 224.138 409.649L216.821 393.743Z" fill="#311547"/>
<path d="M230.364 308.896C227.183 255.497 238.726 248.407 239.226 248.089L239.908 249.271L239.59 248.68L239.953 249.271C239.862 249.316 228.683 256.633 231.773 308.805L230.364 308.896Z" fill="white"/>
<path d="M258.086 406.65C258.086 406.65 262.086 408.559 262.904 423.056C262.994 424.465 261.858 425.646 260.449 425.646H226.001C222.729 425.646 221.184 421.647 223.593 419.42C228.728 414.739 233.136 412.376 239.499 407.241C239.499 407.286 250.497 414.512 258.086 406.65Z" fill="#4F216C"/>
<path d="M324.528 235.546L266.948 241.909L261.813 242.59L229.546 246.862C227.819 247.089 226.819 244.953 228.092 243.772L240.953 231.956C242.271 230.093 244.407 228.956 246.725 228.956H253.587L256.95 228.048L304.941 215.277L303.623 209.051L303.305 207.461L301.76 200.098L328.436 200.189L329.118 203.28L329.254 203.87L333.39 223.321C334.571 229.229 330.481 234.864 324.528 235.546Z" fill="#FCBB9D"/>
<path d="M329.073 203.325L303.259 207.461L301.714 200.098L328.391 200.189L329.073 203.325Z" fill="#E6A68A"/>
<path d="M261.813 242.59L229.546 246.862C227.819 247.089 226.819 244.953 228.092 243.772L240.953 231.956C242.271 230.093 244.407 228.956 246.725 228.956H253.587L256.95 228.048L261.813 242.59Z" fill="#E6A68A"/>
<path d="M206.687 225.321C209.197 225.321 211.231 223.286 211.231 220.776C211.231 218.266 209.197 216.232 206.687 216.232C204.177 216.232 202.142 218.266 202.142 220.776C202.142 223.286 204.177 225.321 206.687 225.321Z" fill="white"/>
<path d="M249.906 194.645L256.132 249.134H181.51L175.284 194.645H249.906Z" fill="#AFAFD5"/>
<path d="M291.671 245.135H247.452V249.134H291.671V245.135Z" fill="#AFAFD5"/>
<path d="M246.316 194.645L252.587 249.134H177.965L171.693 194.645H246.316Z" fill="#DBDCF1"/>
<path d="M207.732 225.184C210.242 225.184 212.277 223.15 212.277 220.64C212.277 218.13 210.242 216.095 207.732 216.095C205.222 216.095 203.187 218.13 203.187 220.64C203.187 223.15 205.222 225.184 207.732 225.184Z" fill="white"/>
<path d="M298.24 184.268L296.919 184.608L301.555 202.608L302.875 202.268L298.24 184.268Z" fill="#373133"/>
<path d="M270.766 131.702C270.766 131.702 269.402 141.609 259.222 144.7L259.54 139.201C259.586 139.201 259.586 139.155 259.631 139.155C262.767 137.701 266.176 135.383 270.766 131.702Z" fill="#E6A68A"/>
</svg>
