<svg width="35" height="35" viewBox="0 0 35 35" fill="none" xmlns="http://www.w3.org/2000/svg">
<path d="M7.29183 30.625L27.7085 30.625C28.5139 30.625 29.1668 29.9721 29.1668 29.1667L29.1668 14.5833C29.1668 13.7779 28.5139 13.125 27.7085 13.125L7.29183 13.125C6.48641 13.125 5.8335 13.7779 5.8335 14.5833L5.8335 29.1667C5.8335 29.9721 6.48641 30.625 7.29183 30.625Z" stroke="#547131" stroke-width="2" stroke-linecap="round" stroke-linejoin="round"/>
<path d="M21.5385 13.125L21.5385 12.125L21.5385 12.125L21.5385 13.125ZM13.4615 13.125L13.4615 14.125L13.4615 14.125L13.4615 13.125ZM13.125 12.7885L12.125 12.7885L13.125 12.7885ZM13.125 8.75L14.125 8.75L13.125 8.75ZM21.875 8.75L20.875 8.75L20.875 8.75L21.875 8.75ZM21.875 12.7885L22.875 12.7885L22.875 12.7885L21.875 12.7885ZM17.5 4.375L17.5 5.375L17.5 4.375ZM21.5385 12.125L13.4615 12.125L13.4615 14.125L21.5385 14.125L21.5385 12.125ZM14.125 12.7885L14.125 8.75L12.125 8.75L12.125 12.7885L14.125 12.7885ZM20.875 8.75L20.875 12.7885L22.875 12.7885L22.875 8.75L20.875 8.75ZM17.5 5.375C19.364 5.375 20.875 6.88604 20.875 8.75L22.875 8.75C22.875 5.78147 20.4685 3.375 17.5 3.375L17.5 5.375ZM14.125 8.75C14.125 6.88604 15.636 5.375 17.5 5.375L17.5 3.375C14.5315 3.375 12.125 5.78147 12.125 8.75L14.125 8.75ZM13.4615 12.125C13.828 12.125 14.125 12.422 14.125 12.7885L12.125 12.7885C12.125 13.5266 12.7234 14.125 13.4615 14.125L13.4615 12.125ZM21.5385 14.125C22.2766 14.125 22.875 13.5266 22.875 12.7885L20.875 12.7885C20.875 12.422 21.172 12.125 21.5385 12.125L21.5385 14.125Z" fill="#547131"/>
<path d="M12 22L16.2426 26.2426L24.7279 17.7574" stroke="#547131" stroke-width="2" stroke-linecap="round" stroke-linejoin="round"/>
</svg>
