<svg width="18" height="20" viewBox="0 0 18 20" fill="none" xmlns="http://www.w3.org/2000/svg">
<path d="M2.59985 15V7H15.4001V15C15.4001 17.2091 13.6092 19 11.4001 19H6.59985C4.39071 19 2.59985 17.2091 2.59985 15Z" fill="#EE2222"/>
<path d="M9 1H8.5C6.84315 1 5.5 2.34315 5.5 4H12C12 2.34315 10.6569 1 9 1Z" fill="#EE2222"/>
<path d="M1 4H17M2.59985 7V15C2.59985 17.2091 4.39071 19 6.59985 19H11.4001C13.6092 19 15.4001 17.2091 15.4001 15V7H2.59985ZM8.5 1H9C10.6569 1 12 2.34315 12 4H5.5C5.5 2.34315 6.84315 1 8.5 1Z" stroke="black" stroke-width="1.5" stroke-linecap="round"/>
</svg>
