<svg width="18" height="19" viewBox="0 0 18 19" fill="none" xmlns="http://www.w3.org/2000/svg">
<mask id="path-1-inside-1_223_81" fill="white">
<path fill-rule="evenodd" clip-rule="evenodd" d="M0.000416271 13.7132L0.0432678 16.2868C0.0629148 17.4668 1.09468 18.3733 2.26737 18.2409L5.18013 17.9121C5.89 17.8319 6.54797 17.5011 7.03567 16.9791L14.848 8.61748L8.87337 3.14075C8.86849 3.13628 8.86368 3.13176 8.85895 3.12718L0.823409 11.5987C0.282829 12.1686 -0.012661 12.9278 0.000416271 13.7132ZM9.8912 2.03892L15.8721 7.52138L16.9192 6.40064C18.0934 5.14387 17.9727 3.15921 16.6549 2.05396L15.0423 0.701442C13.8273 -0.317557 12.0292 -0.215036 10.9379 0.935456L9.8912 2.03892Z"/>
</mask>
<path fill-rule="evenodd" clip-rule="evenodd" d="M0.000416271 13.7132L0.0432678 16.2868C0.0629148 17.4668 1.09468 18.3733 2.26737 18.2409L5.18013 17.9121C5.89 17.8319 6.54797 17.5011 7.03567 16.9791L14.848 8.61748L8.87337 3.14075C8.86849 3.13628 8.86368 3.13176 8.85895 3.12718L0.823409 11.5987C0.282829 12.1686 -0.012661 12.9278 0.000416271 13.7132ZM9.8912 2.03892L15.8721 7.52138L16.9192 6.40064C18.0934 5.14387 17.9727 3.15921 16.6549 2.05396L15.0423 0.701442C13.8273 -0.317557 12.0292 -0.215036 10.9379 0.935456L9.8912 2.03892Z" fill="#A6FFDB"/>
<path d="M0.0432678 16.2868L1.54306 16.2619L1.54306 16.2619L0.0432678 16.2868ZM0.000416271 13.7132L-1.49938 13.7382L0.000416271 13.7132ZM2.26737 18.2409L2.43565 19.7315L2.43565 19.7315L2.26737 18.2409ZM5.18013 17.9121L5.34842 19.4026L5.34842 19.4026L5.18013 17.9121ZM7.03567 16.9791L8.13172 18.0031L8.13172 18.0031L7.03567 16.9791ZM14.848 8.61748L15.944 9.64153L16.9779 8.53501L15.8616 7.51175L14.848 8.61748ZM8.87337 3.14075L9.88695 2.03502L9.88694 2.03501L8.87337 3.14075ZM8.85895 3.12718L9.90089 2.04813L8.81217 0.996865L7.77065 2.0949L8.85895 3.12718ZM0.823409 11.5987L-0.264887 10.5664L-0.264887 10.5664L0.823409 11.5987ZM9.8912 2.03892L8.80291 1.00663L7.75288 2.11364L8.87762 3.14465L9.8912 2.03892ZM15.8721 7.52138L14.8585 8.62711L15.9538 9.63112L16.9681 8.54543L15.8721 7.52138ZM16.9192 6.40064L18.0152 7.42468L18.0152 7.42468L16.9192 6.40064ZM16.6549 2.05396L15.691 3.20325L15.691 3.20325L16.6549 2.05396ZM15.0423 0.701442L16.0062 -0.447849L16.0062 -0.447849L15.0423 0.701442ZM10.9379 0.935456L9.84958 -0.096829L9.84958 -0.0968289L10.9379 0.935456ZM1.54306 16.2619L1.50021 13.6883L-1.49938 13.7382L-1.45652 16.3118L1.54306 16.2619ZM2.09909 16.7504C1.80591 16.7835 1.54797 16.5569 1.54306 16.2619L-1.45652 16.3118C-1.42214 18.3768 0.383448 19.9631 2.43565 19.7315L2.09909 16.7504ZM5.01185 16.4215L2.09908 16.7504L2.43565 19.7315L5.34842 19.4026L5.01185 16.4215ZM5.93962 15.9551C5.69577 16.216 5.36678 16.3815 5.01185 16.4215L5.34842 19.4026C6.41321 19.2824 7.40017 18.7861 8.13172 18.0031L5.93962 15.9551ZM13.7519 7.59343L5.93962 15.9551L8.13172 18.0031L15.944 9.64153L13.7519 7.59343ZM15.8616 7.51175L9.88695 2.03502L7.85978 4.24648L13.8344 9.72321L15.8616 7.51175ZM9.88694 2.03501C9.89159 2.03927 9.89624 2.04364 9.90089 2.04813L7.81701 4.20624C7.83112 4.21987 7.84539 4.23329 7.85979 4.24649L9.88694 2.03501ZM1.91171 12.631L9.94724 4.15947L7.77065 2.0949L-0.264887 10.5664L1.91171 12.631ZM1.50021 13.6883C1.49367 13.2956 1.64141 12.916 1.91171 12.631L-0.264887 10.5664C-1.07576 11.4213 -1.51899 12.5601 -1.49938 13.7382L1.50021 13.6883ZM8.87762 3.14465L14.8585 8.62711L16.8857 6.41565L10.9048 0.933186L8.87762 3.14465ZM15.8231 5.37659L14.776 6.49734L16.9681 8.54543L18.0152 7.42468L15.8231 5.37659ZM15.691 3.20325C16.3499 3.75588 16.4102 4.74821 15.8231 5.37659L18.0152 7.42468C19.7766 5.53953 19.5956 2.56254 17.6188 0.904666L15.691 3.20325ZM14.0784 1.85073L15.691 3.20325L17.6188 0.904666L16.0062 -0.447849L14.0784 1.85073ZM12.0262 1.96774C12.5718 1.3925 13.4709 1.34123 14.0784 1.85073L16.0062 -0.447849C14.1837 -1.97635 11.4865 -1.82257 9.84958 -0.096829L12.0262 1.96774ZM10.9795 3.0712L12.0262 1.96774L9.84958 -0.0968289L8.80291 1.00663L10.9795 3.0712Z" fill="black" mask="url(#path-1-inside-1_223_81)"/>
<path d="M10.3799 17.5879H16.3799" stroke="black" stroke-width="1.5" stroke-linecap="round"/>
</svg>
