<svg width="143" height="50" viewBox="0 0 143 50" fill="none" xmlns="http://www.w3.org/2000/svg">
<rect width="142.5" height="50" rx="25" fill="#5B822B"/>
<path fill-rule="evenodd" clip-rule="evenodd" d="M39 25V29.1071V30.25C39 33.0114 41.2386 35.25 44 35.25H45.5C49.366 35.25 52.5 32.116 52.5 28.25V20.75C52.5 16.884 49.366 13.75 45.5 13.75H44C41.2386 13.75 39 15.9886 39 18.75V19.8929V23.5H43L43.0036 23.5L41.1029 21.8106C40.7933 21.5354 40.7655 21.0613 41.0406 20.7517C41.3158 20.4421 41.7899 20.4143 42.0995 20.6894L45.3722 23.5985C45.5294 23.7382 45.6207 23.9375 45.6238 24.1478C45.627 24.358 45.5418 24.56 45.3889 24.7044L42.1162 27.7953C41.815 28.0797 41.3403 28.0661 41.0559 27.765C40.7715 27.4638 40.7851 26.9891 41.0862 26.7047L42.8912 25H39ZM43.7639 24.1758L43.7477 24.1911C43.7469 24.1802 43.7458 24.1694 43.7445 24.1586L43.7639 24.1758Z" fill="white"/>
<path d="M32 23.5C31.5858 23.5 31.25 23.8358 31.25 24.25C31.25 24.6642 31.5858 25 32 25V23.5ZM38.3 25H39.05V23.5H38.3V25ZM32 25H38.3V23.5H32V25Z" fill="white"/>
<path d="M65.524 20.852V24.116H69.364V25.604H65.524V29.012H69.844V30.5H63.7V19.364H69.844V20.852H65.524ZM76.5386 21.54C77.232 21.54 77.8506 21.684 78.3946 21.972C78.9493 22.26 79.3813 22.6867 79.6906 23.252C80 23.8173 80.1546 24.5 80.1546 25.3V30.5H78.3466V25.572C78.3466 24.7827 78.1493 24.18 77.7546 23.764C77.36 23.3373 76.8213 23.124 76.1386 23.124C75.456 23.124 74.912 23.3373 74.5066 23.764C74.112 24.18 73.9146 24.7827 73.9146 25.572V30.5H72.0906V21.684H73.9146V22.692C74.2133 22.3293 74.592 22.0467 75.0506 21.844C75.52 21.6413 76.016 21.54 76.5386 21.54ZM84.6093 23.172V28.052C84.6093 28.3827 84.6839 28.6227 84.8333 28.772C84.9933 28.9107 85.2599 28.98 85.6333 28.98H86.7533V30.5H85.3133C84.4919 30.5 83.8626 30.308 83.4253 29.924C82.9879 29.54 82.7693 28.916 82.7693 28.052V23.172H81.7293V21.684H82.7693V19.492H84.6093V21.684H86.7533V23.172H84.6093ZM90.2584 22.964C90.525 22.516 90.877 22.1693 91.3144 21.924C91.7624 21.668 92.2904 21.54 92.8984 21.54V23.428H92.4344C91.7197 23.428 91.1757 23.6093 90.8024 23.972C90.4397 24.3347 90.2584 24.964 90.2584 25.86V30.5H88.4344V21.684H90.2584V22.964ZM93.967 26.052C93.967 25.1667 94.1483 24.3827 94.511 23.7C94.8843 23.0173 95.3857 22.4893 96.015 22.116C96.655 21.732 97.359 21.54 98.127 21.54C98.8203 21.54 99.423 21.6787 99.935 21.956C100.458 22.2227 100.874 22.5587 101.183 22.964V21.684H103.023V30.5H101.183V29.188C100.874 29.604 100.452 29.9507 99.919 30.228C99.3857 30.5053 98.7777 30.644 98.095 30.644C97.3377 30.644 96.6443 30.452 96.015 30.068C95.3857 29.6733 94.8843 29.1293 94.511 28.436C94.1483 27.732 93.967 26.9373 93.967 26.052ZM101.183 26.084C101.183 25.476 101.055 24.948 100.799 24.5C100.554 24.052 100.228 23.7107 99.823 23.476C99.4177 23.2413 98.9803 23.124 98.511 23.124C98.0417 23.124 97.6043 23.2413 97.199 23.476C96.7937 23.7 96.463 24.036 96.207 24.484C95.9617 24.9213 95.839 25.444 95.839 26.052C95.839 26.66 95.9617 27.1933 96.207 27.652C96.463 28.1107 96.7937 28.4627 97.199 28.708C97.615 28.9427 98.0523 29.06 98.511 29.06C98.9803 29.06 99.4177 28.9427 99.823 28.708C100.228 28.4733 100.554 28.132 100.799 27.684C101.055 27.2253 101.183 26.692 101.183 26.084ZM107.243 22.964C107.509 22.516 107.861 22.1693 108.299 21.924C108.747 21.668 109.275 21.54 109.883 21.54V23.428H109.419C108.704 23.428 108.16 23.6093 107.787 23.972C107.424 24.3347 107.243 24.964 107.243 25.86V30.5H105.419V21.684H107.243V22.964Z" fill="#F9F9F9"/>
</svg>
