<svg width="184" height="70" viewBox="0 0 184 70" fill="none" xmlns="http://www.w3.org/2000/svg">
<rect width="184" height="70" rx="30" fill="#8A71B8"/>
<path d="M45.592 39.832H50.968V43H41.488V26.152H45.592V39.832ZM65.5495 36.088C65.5495 36.472 65.5255 36.872 65.4775 37.288H56.1895C56.2535 38.12 56.5175 38.76 56.9815 39.208C57.4615 39.64 58.0455 39.856 58.7335 39.856C59.7575 39.856 60.4695 39.424 60.8695 38.56H65.2375C65.0135 39.44 64.6055 40.232 64.0135 40.936C63.4375 41.64 62.7095 42.192 61.8295 42.592C60.9495 42.992 59.9655 43.192 58.8775 43.192C57.5655 43.192 56.3975 42.912 55.3735 42.352C54.3495 41.792 53.5495 40.992 52.9735 39.952C52.3975 38.912 52.1095 37.696 52.1095 36.304C52.1095 34.912 52.3895 33.696 52.9495 32.656C53.5255 31.616 54.3255 30.816 55.3495 30.256C56.3735 29.696 57.5495 29.416 58.8775 29.416C60.1735 29.416 61.3255 29.688 62.3335 30.232C63.3415 30.776 64.1255 31.552 64.6855 32.56C65.2615 33.568 65.5495 34.744 65.5495 36.088ZM61.3495 35.008C61.3495 34.304 61.1095 33.744 60.6295 33.328C60.1495 32.912 59.5495 32.704 58.8295 32.704C58.1415 32.704 57.5575 32.904 57.0775 33.304C56.6135 33.704 56.3255 34.272 56.2135 35.008H61.3495ZM71.8186 31.84C72.2986 31.104 72.8986 30.528 73.6186 30.112C74.3386 29.68 75.1386 29.464 76.0186 29.464V33.808H74.8906C73.8666 33.808 73.0986 34.032 72.5866 34.48C72.0746 34.912 71.8186 35.68 71.8186 36.784V43H67.7146V29.608H71.8186V31.84ZM100.154 29.464C101.818 29.464 103.138 29.968 104.114 30.976C105.106 31.984 105.602 33.384 105.602 35.176V43H101.522V35.728C101.522 34.864 101.29 34.2 100.826 33.736C100.378 33.256 99.7541 33.016 98.9541 33.016C98.1541 33.016 97.5221 33.256 97.0581 33.736C96.6101 34.2 96.3861 34.864 96.3861 35.728V43H92.3061V35.728C92.3061 34.864 92.0741 34.2 91.6101 33.736C91.1621 33.256 90.5381 33.016 89.7381 33.016C88.9381 33.016 88.3061 33.256 87.8421 33.736C87.3941 34.2 87.1701 34.864 87.1701 35.728V43H83.0661V29.608H87.1701V31.288C87.5861 30.728 88.1301 30.288 88.8021 29.968C89.4741 29.632 90.2341 29.464 91.0821 29.464C92.0901 29.464 92.9861 29.68 93.7701 30.112C94.5701 30.544 95.1941 31.16 95.6421 31.96C96.1061 31.224 96.7381 30.624 97.5381 30.16C98.3381 29.696 99.2101 29.464 100.154 29.464ZM107.656 36.28C107.656 34.904 107.912 33.696 108.424 32.656C108.952 31.616 109.664 30.816 110.56 30.256C111.456 29.696 112.456 29.416 113.56 29.416C114.504 29.416 115.328 29.608 116.032 29.992C116.752 30.376 117.304 30.88 117.688 31.504V29.608H121.792V43H117.688V41.104C117.288 41.728 116.728 42.232 116.008 42.616C115.304 43 114.48 43.192 113.536 43.192C112.448 43.192 111.456 42.912 110.56 42.352C109.664 41.776 108.952 40.968 108.424 39.928C107.912 38.872 107.656 37.656 107.656 36.28ZM117.688 36.304C117.688 35.28 117.4 34.472 116.824 33.88C116.264 33.288 115.576 32.992 114.76 32.992C113.944 32.992 113.248 33.288 112.672 33.88C112.112 34.456 111.832 35.256 111.832 36.28C111.832 37.304 112.112 38.12 112.672 38.728C113.248 39.32 113.944 39.616 114.76 39.616C115.576 39.616 116.264 39.32 116.824 38.728C117.4 38.136 117.688 37.328 117.688 36.304ZM126.825 28.216C126.105 28.216 125.513 28.008 125.049 27.592C124.601 27.16 124.377 26.632 124.377 26.008C124.377 25.368 124.601 24.84 125.049 24.424C125.513 23.992 126.105 23.776 126.825 23.776C127.529 23.776 128.105 23.992 128.553 24.424C129.017 24.84 129.249 25.368 129.249 26.008C129.249 26.632 129.017 27.16 128.553 27.592C128.105 28.008 127.529 28.216 126.825 28.216ZM128.865 29.608V43H124.761V29.608H128.865ZM137.288 43.192C136.12 43.192 135.08 42.992 134.168 42.592C133.256 42.192 132.536 41.648 132.008 40.96C131.48 40.256 131.184 39.472 131.12 38.608H135.176C135.224 39.072 135.44 39.448 135.824 39.736C136.208 40.024 136.68 40.168 137.24 40.168C137.752 40.168 138.144 40.072 138.416 39.88C138.704 39.672 138.848 39.408 138.848 39.088C138.848 38.704 138.648 38.424 138.248 38.248C137.848 38.056 137.2 37.848 136.304 37.624C135.344 37.4 134.544 37.168 133.904 36.928C133.264 36.672 132.712 36.28 132.248 35.752C131.784 35.208 131.552 34.48 131.552 33.568C131.552 32.8 131.76 32.104 132.176 31.48C132.608 30.84 133.232 30.336 134.048 29.968C134.88 29.6 135.864 29.416 137 29.416C138.68 29.416 140 29.832 140.96 30.664C141.936 31.496 142.496 32.6 142.64 33.976H138.848C138.784 33.512 138.576 33.144 138.224 32.872C137.888 32.6 137.44 32.464 136.88 32.464C136.4 32.464 136.032 32.56 135.776 32.752C135.52 32.928 135.392 33.176 135.392 33.496C135.392 33.88 135.592 34.168 135.992 34.36C136.408 34.552 137.048 34.744 137.912 34.936C138.904 35.192 139.712 35.448 140.336 35.704C140.96 35.944 141.504 36.344 141.968 36.904C142.448 37.448 142.696 38.184 142.712 39.112C142.712 39.896 142.488 40.6 142.04 41.224C141.608 41.832 140.976 42.312 140.144 42.664C139.328 43.016 138.376 43.192 137.288 43.192Z" fill="white"/>
</svg>
