<svg width="35" height="35" viewBox="0 0 35 35" fill="none" xmlns="http://www.w3.org/2000/svg">
<path d="M13.3755 21.6253L21.6251 13.3757" stroke="#547131" stroke-width="2" stroke-linecap="round" stroke-linejoin="round"/>
<path d="M10.9888 17.176C11.3793 16.7855 11.3793 16.1524 10.9888 15.7618C10.5983 15.3713 9.9651 15.3713 9.57457 15.7618L10.9888 17.176ZM19.2384 25.4256C19.6289 25.0351 19.6289 24.4019 19.2384 24.0114C18.8478 23.6209 18.2147 23.6209 17.8242 24.0114L19.2384 25.4256ZM9.57457 15.7618L7.51218 17.8242L8.92639 19.2384L10.9888 17.176L9.57457 15.7618ZM17.176 27.488L19.2384 25.4256L17.8242 24.0114L15.7618 26.0738L17.176 27.488ZM7.51218 27.488C10.1808 30.1566 14.5074 30.1566 17.176 27.488L15.7618 26.0738C13.8742 27.9613 10.8139 27.9613 8.92639 26.0738L7.51218 27.488ZM7.51218 17.8242C4.8436 20.4928 4.8436 24.8194 7.51218 27.488L8.92639 26.0738C7.03886 24.1863 7.03886 21.126 8.92639 19.2384L7.51218 17.8242Z" fill="#547131"/>
<path d="M15.7616 9.57433C15.3711 9.96485 15.3711 10.598 15.7616 10.9885C16.1522 11.3791 16.7853 11.3791 17.1759 10.9885L15.7616 9.57433ZM24.0112 17.8239C23.6207 18.2144 23.6207 18.8476 24.0112 19.2381C24.4017 19.6286 25.0349 19.6286 25.4254 19.2381L24.0112 17.8239ZM17.1759 10.9885L19.2383 8.92615L17.824 7.51193L15.7616 9.57433L17.1759 10.9885ZM26.0736 15.7615L24.0112 17.8239L25.4254 19.2381L27.4878 17.1757L26.0736 15.7615ZM26.0736 8.92615C27.9611 10.8137 27.9611 13.874 26.0736 15.7615L27.4878 17.1757C30.1564 14.5071 30.1564 10.1805 27.4878 7.51193L26.0736 8.92615ZM19.2383 8.92615C21.1258 7.03861 24.1861 7.03861 26.0736 8.92615L27.4878 7.51193C24.8192 4.84335 20.4926 4.84335 17.824 7.51193L19.2383 8.92615Z" fill="#547131"/>
</svg>
