<svg width="141" height="50" viewBox="0 0 141 50" fill="none" xmlns="http://www.w3.org/2000/svg">
<rect width="141" height="50" rx="4" fill="#183A37"/>
<path d="M44.5 17H47.8333C48.2754 17 48.6993 17.1756 49.0118 17.4882C49.3244 17.8007 49.5 18.2246 49.5 18.6667V30.3333C49.5 30.7754 49.3244 31.1993 49.0118 31.5118C48.6993 31.8244 48.2754 32 47.8333 32H44.5" stroke="#FAFAFA" stroke-width="2" stroke-linecap="round" stroke-linejoin="round"/>
<path d="M40.3333 28.6666L44.5 24.5L40.3333 20.3333" stroke="#FAFAFA" stroke-width="2" stroke-linecap="round" stroke-linejoin="round"/>
<path d="M44.5 24.5H34.5" stroke="#FAFAFA" stroke-width="2" stroke-linecap="round" stroke-linejoin="round"/>
<path d="M63.136 30V18.8H70.256V20.176H64.832V23.664H69.776V25.008H64.832V28.624H70.256V30H63.136ZM72.2126 30V22.064H73.7166L73.8446 23.456C74.09 22.9653 74.4473 22.5813 74.9166 22.304C75.3966 22.016 75.946 21.872 76.5646 21.872C77.5246 21.872 78.2766 22.1707 78.8206 22.768C79.3753 23.3653 79.6526 24.256 79.6526 25.44V30H77.9726V25.616C77.9726 24.08 77.3433 23.312 76.0846 23.312C75.4553 23.312 74.9326 23.536 74.5166 23.984C74.1113 24.432 73.9086 25.072 73.9086 25.904V30H72.2126ZM84.9781 30C84.1995 30 83.5808 29.8133 83.1221 29.44C82.6635 29.056 82.4341 28.3787 82.4341 27.408V23.488H81.0741V22.064H82.4341L82.6421 20.048H84.1301V22.064H86.3701V23.488H84.1301V27.408C84.1301 27.8453 84.2208 28.1493 84.4021 28.32C84.5941 28.48 84.9195 28.56 85.3781 28.56H86.2901V30H84.9781ZM88.1189 30V22.064H89.6389L89.7829 23.568C90.0602 23.0453 90.4442 22.6347 90.9349 22.336C91.4362 22.0267 92.0389 21.872 92.7429 21.872V23.648H92.2789C91.8095 23.648 91.3882 23.728 91.0149 23.888C90.6522 24.0373 90.3589 24.2987 90.1349 24.672C89.9215 25.0347 89.8149 25.5413 89.8149 26.192V30H88.1189ZM96.885 30.192C96.213 30.192 95.6583 30.08 95.221 29.856C94.7837 29.632 94.4583 29.3387 94.245 28.976C94.0317 28.6027 93.925 28.1973 93.925 27.76C93.925 26.992 94.2237 26.384 94.821 25.936C95.4183 25.488 96.2717 25.264 97.381 25.264H99.461V25.12C99.461 24.5013 99.2903 24.0373 98.949 23.728C98.6183 23.4187 98.1863 23.264 97.653 23.264C97.1837 23.264 96.773 23.3813 96.421 23.616C96.0797 23.84 95.8717 24.176 95.797 24.624H94.101C94.1543 24.048 94.3463 23.5573 94.677 23.152C95.0183 22.736 95.445 22.4213 95.957 22.208C96.4797 21.984 97.0503 21.872 97.669 21.872C98.7783 21.872 99.637 22.1653 100.245 22.752C100.853 23.328 101.157 24.1173 101.157 25.12V30H99.685L99.541 28.64C99.317 29.0773 98.9917 29.4453 98.565 29.744C98.1383 30.0427 97.5783 30.192 96.885 30.192ZM97.221 28.816C97.6797 28.816 98.0637 28.7093 98.373 28.496C98.693 28.272 98.9383 27.9787 99.109 27.616C99.2903 27.2533 99.4023 26.8533 99.445 26.416H97.557C96.885 26.416 96.405 26.5333 96.117 26.768C95.8397 27.0027 95.701 27.296 95.701 27.648C95.701 28.0107 95.8343 28.2987 96.101 28.512C96.3783 28.7147 96.7517 28.816 97.221 28.816ZM103.135 30V22.064H104.655L104.799 23.568C105.076 23.0453 105.46 22.6347 105.951 22.336C106.452 22.0267 107.055 21.872 107.759 21.872V23.648H107.295C106.825 23.648 106.404 23.728 106.031 23.888C105.668 24.0373 105.375 24.2987 105.151 24.672C104.937 25.0347 104.831 25.5413 104.831 26.192V30H103.135Z" fill="#F9F9F9"/>
</svg>
