<svg width="189" height="57" viewBox="0 0 189 57" fill="none" xmlns="http://www.w3.org/2000/svg">
<path d="M60.3192 0H189V56.2979H60.3192V0Z" fill="#ED8074"/>
<path fill-rule="evenodd" clip-rule="evenodd" d="M53.8851 2.41277H2.41277V53.8851H53.8851V2.41277ZM0 0V56.2979H56.2979V0H0Z" fill="#ED8074"/>
<path d="M84.483 46.6227C82.2525 46.6227 80.1789 46.187 78.2621 45.3158C76.3453 44.4445 74.7596 43.0853 73.5049 41.2382C72.2503 39.3562 71.4661 36.9341 71.1525 33.9717C71.1176 33.5884 71.0828 33.205 71.0479 32.8216C71.0479 32.4383 71.0479 32.0724 71.0479 31.7238C71.0479 29.3888 71.3964 27.0712 72.0934 24.7711C72.8253 22.436 73.836 20.2404 75.1255 18.1842C76.415 16.128 77.9484 14.2983 79.7258 12.6952C81.5032 11.092 83.4549 9.83737 85.5808 8.93124C87.7416 7.99026 90.0243 7.51978 92.429 7.51978H93.2132C94.4678 7.55463 95.6353 7.78116 96.7157 8.19937C97.831 8.61758 98.7197 9.27975 99.3818 10.1859C100.079 11.0572 100.427 12.2595 100.427 13.793C100.427 15.5007 99.922 17.1735 98.9113 18.8115C97.9007 20.4147 96.5589 21.8784 94.886 23.2028C93.2132 24.5271 91.3661 25.5901 89.3447 26.3916C87.3234 27.1584 85.2846 27.5417 83.2284 27.5417C83.089 27.5417 82.9496 27.5417 82.8101 27.5417C82.6707 27.5069 82.5139 27.4894 82.3397 27.4894C81.8866 27.4546 81.5555 27.2803 81.3464 26.9667C81.1721 26.653 81.085 26.3916 81.085 26.1825C83.2806 26.1825 85.4414 25.834 87.5673 25.137C89.7281 24.44 91.6623 23.377 93.37 21.9481C95.1126 20.4844 96.4543 18.6198 97.3953 16.3545C97.8832 15.1696 98.1272 14.0892 98.1272 13.1134C98.1272 12.1027 97.8135 11.2663 97.1862 10.6041C96.5937 9.90707 95.5656 9.52371 94.1019 9.45401H93.736C92.3419 9.45401 90.8259 9.8548 89.1879 10.6564C87.5499 11.4231 85.9293 12.5209 84.3262 13.9498C82.723 15.3787 81.2593 17.069 79.9349 19.0206C78.6454 20.9723 77.5999 23.1505 76.7983 25.5552C75.9968 27.9251 75.596 30.4518 75.596 33.1353V33.6058C75.596 36.359 76.0142 38.5546 76.8506 40.1926C77.7219 41.7958 78.872 42.9459 80.3009 43.6429C81.7646 44.3399 83.3503 44.6884 85.058 44.6884C85.3368 44.6884 85.5982 44.6884 85.8422 44.6884C86.121 44.6884 86.3824 44.671 86.6263 44.6362C88.3689 44.4619 90.1114 43.9391 91.854 43.0679C93.5966 42.1617 95.2171 41.0465 96.7157 39.7222C98.2143 38.3978 99.4515 36.9515 100.427 35.3832C101.438 33.8149 102.048 32.2815 102.257 30.7829C102.292 30.6086 102.379 30.5215 102.518 30.5215C102.658 30.5215 102.797 30.5738 102.937 30.6783C103.076 30.7829 103.146 30.9048 103.146 31.0442V31.0965C103.146 32.6648 102.815 34.1111 102.152 35.4355C101.525 36.7598 100.793 37.9796 99.9569 39.0948C98.3886 41.1859 96.3672 42.8762 93.8928 44.1657C91.4532 45.4552 88.9439 46.2393 86.365 46.5181C86.0513 46.553 85.7376 46.5704 85.424 46.5704C85.1103 46.6052 84.7967 46.6227 84.483 46.6227Z" fill="white"/>
<path d="M119.166 44.8975C118.086 44.8975 117.215 44.5665 116.553 43.9043C115.89 43.2073 115.368 42.336 114.984 41.2905C114.636 40.2101 114.392 39.1297 114.252 38.0493C114.113 36.9341 114.043 35.9582 114.043 35.1218C113.625 36.6901 113.085 38.2236 112.423 39.7222C111.795 41.2208 111.098 42.458 110.332 43.4338C109.565 44.3748 108.729 44.8453 107.822 44.8453H107.77C106.934 44.8453 106.237 44.4619 105.679 43.6952C105.121 42.8936 104.703 41.8481 104.424 40.5586C104.146 39.2691 104.006 37.8751 104.006 36.3765V35.8537C104.006 34.4596 104.128 32.9262 104.372 31.2534C104.616 29.5457 105.052 27.9251 105.679 26.3916C106.306 24.8582 107.16 23.6035 108.241 22.6277C109.356 21.617 110.767 21.1117 112.475 21.1117C113.137 21.1117 113.73 21.2685 114.252 21.5822C114.81 21.861 115.211 22.2792 115.455 22.8368C115.699 22.558 116.03 22.3315 116.448 22.1572C116.866 21.983 117.372 21.8958 117.964 21.8958C118.173 21.8958 118.4 21.9133 118.644 21.9481C118.923 21.983 119.201 22.0352 119.48 22.1049C119.271 22.9065 119.027 24.0043 118.748 25.3984C118.469 26.7924 118.225 28.3259 118.016 29.9987C117.842 31.6367 117.755 33.2399 117.755 34.8082V35.0173C117.755 35.6794 117.79 36.4636 117.86 37.3697C117.929 38.2758 118.051 39.1645 118.225 40.0358C118.4 40.9071 118.644 41.639 118.957 42.2314C119.271 42.8239 119.672 43.1201 120.16 43.1201H120.212C120.491 43.1201 120.787 42.9807 121.101 42.7019C121.449 42.4231 121.815 41.9004 122.199 41.1336C122.721 40.1229 123.209 38.816 123.662 37.2129C123.732 36.8992 123.871 36.7424 124.08 36.7424C124.255 36.7424 124.342 36.9515 124.342 37.3697V37.5788C124.272 38.4849 124.028 39.5131 123.61 40.6631C123.192 41.8132 122.599 42.8065 121.833 43.6429C121.101 44.4793 120.212 44.8975 119.166 44.8975ZM109.6 40.5586C110.157 40.5586 110.663 40.1578 111.116 39.3562C111.604 38.5547 112.039 37.5788 112.423 36.4287C112.806 35.2786 113.137 34.1634 113.416 33.083C113.834 31.4799 114.113 29.8593 114.252 28.2213C114.392 26.5485 114.688 24.9105 115.141 23.3073C114.723 22.8542 114.252 22.6277 113.73 22.6277C112.963 22.6277 112.179 23.0111 111.377 23.7778C110.576 24.5445 109.948 25.4158 109.495 26.3916C108.938 27.6114 108.519 29.0403 108.241 30.6783C107.997 32.3163 107.875 33.8846 107.875 35.3832C107.875 35.7666 107.875 36.1499 107.875 36.5333C107.91 36.9166 107.944 37.2826 107.979 37.6311C108.049 38.6766 108.241 39.4259 108.554 39.879C108.903 40.3321 109.251 40.5586 109.6 40.5586Z" fill="white"/>
<path d="M129.994 45.1589C128.077 45.1589 126.666 44.6013 125.759 43.4861C124.888 42.336 124.331 40.7851 124.087 38.8335C123.843 36.8818 123.721 34.6862 123.721 32.2466C123.721 31.2359 123.738 30.1555 123.773 29.0055C123.808 27.8554 123.86 26.775 123.93 25.7643C124.034 24.7536 124.121 23.9869 124.191 23.4641H122.571C122.292 23.4641 122.152 23.2899 122.152 22.9414C122.152 22.7671 122.222 22.5929 122.361 22.4186C122.466 22.2095 122.605 22.1049 122.78 22.1049H124.296C124.435 20.4669 124.592 18.9858 124.766 17.6614C124.94 16.3371 125.15 15.3961 125.394 14.8385C125.568 14.4551 125.847 14.1241 126.23 13.8452C126.648 13.5316 127.206 13.3748 127.903 13.3748C128.112 13.3748 128.338 13.3922 128.582 13.427C128.861 13.4619 129.123 13.5142 129.367 13.5839C129.192 14.1763 128.983 15.2567 128.739 16.825C128.53 18.3585 128.338 20.1184 128.164 22.1049H132.346C132.66 22.1049 132.817 22.2966 132.817 22.68C132.817 22.8542 132.765 23.0285 132.66 23.2028C132.555 23.377 132.399 23.4641 132.189 23.4641H128.007C127.903 24.6491 127.798 25.8863 127.694 27.1758C127.589 28.4653 127.519 29.7199 127.485 30.9397C127.485 31.2882 127.467 31.6716 127.432 32.0898C127.432 32.4731 127.432 32.8914 127.432 33.3444C127.432 34.3551 127.467 35.4355 127.537 36.5856C127.607 37.7356 127.763 38.816 128.007 39.8267C128.251 40.8374 128.6 41.6564 129.053 42.2837C129.506 42.911 130.098 43.2247 130.83 43.2247C131.179 43.2247 131.527 43.155 131.876 43.0156C132.224 42.8413 132.521 42.6322 132.765 42.3883C133.462 41.7261 133.984 40.8374 134.333 39.7222C134.716 38.6069 135.047 37.4743 135.326 36.3242C135.431 35.8363 135.605 35.5923 135.849 35.5923C136.023 35.5923 136.11 35.8014 136.11 36.2196C136.11 36.3242 136.093 36.4462 136.058 36.5856C136.058 36.725 136.041 36.8818 136.006 37.0561C135.797 38.241 135.465 39.4608 135.012 40.7154C134.594 41.9701 133.984 43.033 133.183 43.9043C132.416 44.7407 131.353 45.1589 129.994 45.1589Z" fill="white"/>
<path d="M140.069 18.1842C139.407 18.1842 138.814 17.9402 138.292 17.4523C137.804 16.9644 137.56 16.3719 137.56 15.6749C137.56 14.9779 137.804 14.3854 138.292 13.8975C138.814 13.4096 139.407 13.1656 140.069 13.1656C140.766 13.1656 141.358 13.4096 141.846 13.8975C142.334 14.3854 142.578 14.9779 142.578 15.6749C142.578 16.3719 142.334 16.9644 141.846 17.4523C141.358 17.9402 140.766 18.1842 140.069 18.1842ZM139.703 44.8975C138.448 44.8975 137.455 44.3748 136.723 43.3292C136.026 42.2489 135.521 40.8897 135.207 39.2517C134.928 37.5788 134.789 35.8363 134.789 34.024C134.789 32.5254 134.859 31.0791 134.998 29.6851C135.172 28.2562 135.364 27.0189 135.573 25.9734C135.817 24.893 136.044 24.1263 136.253 23.6732C136.462 23.255 136.793 22.8717 137.246 22.5232C137.734 22.1398 138.379 21.9481 139.18 21.9481C139.633 21.9481 140.086 22.0004 140.539 22.1049C140.191 23.3247 139.773 25.015 139.285 27.1758C138.797 29.3365 138.553 31.7238 138.553 34.3377C138.553 35.2438 138.57 36.2196 138.605 37.2652C138.64 38.2758 138.727 39.2342 138.867 40.1404C139.006 41.0117 139.215 41.7261 139.494 42.2837C139.808 42.8413 140.208 43.1201 140.696 43.1201H140.749C141.027 43.1201 141.324 42.9807 141.637 42.7019C141.986 42.4231 142.352 41.9004 142.735 41.1336C143.258 40.1229 143.746 38.816 144.199 37.2129C144.268 36.8992 144.408 36.7424 144.617 36.7424C144.791 36.7424 144.878 36.9515 144.878 37.3697V37.5788C144.809 38.4849 144.565 39.5131 144.147 40.6631C143.728 41.8132 143.136 42.8065 142.369 43.6429C141.637 44.4793 140.749 44.8975 139.703 44.8975Z" fill="white"/>
<path d="M150.517 44.7407C149.75 44.7407 149.122 44.3399 148.635 43.5384C148.181 42.7019 147.833 41.6215 147.589 40.2972C147.345 38.938 147.153 37.4568 147.014 35.8537C146.875 34.2505 146.77 32.6822 146.7 31.1488C146.491 32.1595 146.247 33.2573 145.968 34.4422C145.69 35.5923 145.359 36.8121 144.975 38.1016C144.871 38.4849 144.766 38.8683 144.662 39.2517C144.557 39.6002 144.435 39.9487 144.296 40.2972C144.156 40.7503 143.947 40.9768 143.668 40.9768C143.424 40.9768 143.302 40.7677 143.302 40.3495C143.302 40.0707 143.372 39.7396 143.511 39.3562L144.086 37.5788C144.644 35.8363 145.062 34.1808 145.341 32.6125C145.62 31.0094 145.829 29.5108 145.968 28.1168C146.003 27.8031 146.021 27.4894 146.021 27.1758C146.056 26.8273 146.073 26.4962 146.073 26.1825C146.073 25.6598 146.056 25.1718 146.021 24.7188C145.986 24.2657 145.951 23.8998 145.916 23.621C146.474 22.9936 147.188 22.68 148.06 22.68H148.112C149.018 22.68 149.593 23.2376 149.837 24.3528C150.116 25.4681 150.255 26.8447 150.255 28.4827V29.8419C150.255 30.2949 150.273 30.9745 150.307 31.8807C150.342 32.7868 150.412 33.7801 150.517 34.8604C150.621 35.9408 150.76 36.9689 150.935 37.9448C151.109 38.9206 151.336 39.7396 151.614 40.4018C151.893 41.0291 152.224 41.3427 152.608 41.3427C153.2 41.3427 153.81 40.8025 154.437 39.7222C155.065 38.6069 155.552 37.3523 155.901 35.9582C155.971 35.5749 156.058 35.1567 156.162 34.7036C156.267 34.2505 156.354 33.7626 156.424 33.2399C156.25 32.5428 156.11 31.7935 156.006 30.992C155.901 30.1904 155.831 29.4411 155.796 28.7441C155.762 28.0122 155.744 27.472 155.744 27.1235C155.744 26.6007 155.762 25.9211 155.796 25.0847C155.831 24.2483 155.918 23.4119 156.058 22.5754C156.232 21.739 156.476 21.042 156.79 20.4844C157.103 19.8919 157.539 19.5957 158.097 19.5957C158.585 19.5957 159.003 19.9442 159.351 20.6412C159.595 21.164 159.717 22.0004 159.717 23.1505C159.717 24.5445 159.543 26.1825 159.194 28.0645C158.846 29.9116 158.375 31.811 157.783 33.7626C158.097 34.146 158.48 34.4422 158.933 34.6513C159.386 34.8256 159.839 34.9127 160.292 34.9127C161.442 34.9127 162.488 34.5642 163.429 33.8672C163.673 33.7278 163.882 33.6581 164.056 33.6581C164.161 33.6581 164.213 33.7452 164.213 33.9195C164.213 34.1983 164.108 34.4074 163.899 34.5468C162.749 35.5226 161.46 36.0105 160.031 36.0105C158.985 36.0105 158.097 35.6969 157.365 35.0695C156.772 36.7772 156.11 38.3804 155.378 39.879C154.646 41.3427 153.862 42.5277 153.026 43.4338C152.224 44.3051 151.388 44.7407 150.517 44.7407Z" fill="white"/>
<path d="M177.161 44.8975C176.08 44.8975 175.209 44.5665 174.547 43.9043C173.885 43.2073 173.362 42.336 172.979 41.2905C172.63 40.2101 172.386 39.1297 172.247 38.0493C172.107 36.9341 172.038 35.9582 172.038 35.1218C171.62 36.6901 171.079 38.2236 170.417 39.7222C169.79 41.2208 169.093 42.458 168.326 43.4338C167.559 44.3748 166.723 44.8453 165.817 44.8453H165.765C164.928 44.8453 164.231 44.4619 163.673 43.6952C163.116 42.8936 162.698 41.8481 162.419 40.5586C162.14 39.2691 162.001 37.8751 162.001 36.3765V35.8537C162.001 34.4596 162.123 32.9262 162.367 31.2534C162.611 29.5457 163.046 27.9251 163.673 26.3916C164.301 24.8582 165.155 23.6035 166.235 22.6277C167.35 21.617 168.762 21.1117 170.469 21.1117C171.132 21.1117 171.724 21.2685 172.247 21.5822C172.804 21.861 173.205 22.2792 173.449 22.8368C173.693 22.558 174.024 22.3315 174.442 22.1572C174.861 21.983 175.366 21.8958 175.958 21.8958C176.168 21.8958 176.394 21.9133 176.638 21.9481C176.917 21.983 177.196 22.0352 177.474 22.1049C177.265 22.9065 177.021 24.0043 176.743 25.3984C176.464 26.7924 176.22 28.3259 176.011 29.9987C175.836 31.6367 175.749 33.2399 175.749 34.8082V35.0173C175.749 35.6794 175.784 36.4636 175.854 37.3697C175.924 38.2758 176.046 39.1645 176.22 40.0358C176.394 40.9071 176.638 41.639 176.952 42.2314C177.265 42.8239 177.666 43.1201 178.154 43.1201H178.206C178.485 43.1201 178.781 42.9807 179.095 42.7019C179.444 42.4231 179.81 41.9004 180.193 41.1336C180.716 40.1229 181.204 38.816 181.657 37.2129C181.726 36.8992 181.866 36.7424 182.075 36.7424C182.249 36.7424 182.336 36.9515 182.336 37.3697V37.5788C182.267 38.4849 182.023 39.5131 181.604 40.6631C181.186 41.8132 180.594 42.8065 179.827 43.6429C179.095 44.4793 178.206 44.8975 177.161 44.8975ZM167.594 40.5586C168.152 40.5586 168.657 40.1578 169.11 39.3562C169.598 38.5547 170.034 37.5788 170.417 36.4287C170.801 35.2786 171.132 34.1634 171.41 33.083C171.829 31.4799 172.107 29.8593 172.247 28.2213C172.386 26.5485 172.682 24.9105 173.136 23.3073C172.717 22.8542 172.247 22.6277 171.724 22.6277C170.957 22.6277 170.173 23.0111 169.372 23.7778C168.57 24.5445 167.943 25.4158 167.49 26.3916C166.932 27.6114 166.514 29.0403 166.235 30.6783C165.991 32.3163 165.869 33.8846 165.869 35.3832C165.869 35.7666 165.869 36.1499 165.869 36.5333C165.904 36.9166 165.939 37.2826 165.974 37.6311C166.043 38.6766 166.235 39.4259 166.549 39.879C166.897 40.3321 167.246 40.5586 167.594 40.5586Z" fill="white"/>
<path d="M25.3702 46.6227C23.1397 46.6227 21.0661 46.187 19.1493 45.3158C17.2325 44.4445 15.6468 43.0853 14.3921 41.2382C13.1375 39.3562 12.3533 36.9341 12.0397 33.9717C12.0048 33.5884 11.97 33.205 11.9351 32.8216C11.9351 32.4383 11.9351 32.0724 11.9351 31.7238C11.9351 29.3888 12.2836 27.0712 12.9807 24.7711C13.7125 22.436 14.7232 20.2404 16.0127 18.1842C17.3022 16.128 18.8356 14.2983 20.613 12.6952C22.3904 11.092 24.3421 9.83737 26.468 8.93124C28.6288 7.99026 30.9115 7.51978 33.3162 7.51978H34.1004C35.355 7.55463 36.5225 7.78116 37.6029 8.19937C38.7182 8.61758 39.6069 9.27975 40.269 10.1859C40.9661 11.0572 41.3146 12.2595 41.3146 13.793C41.3146 15.5007 40.8092 17.1735 39.7985 18.8115C38.7879 20.4147 37.4461 21.8784 35.7732 23.2028C34.1004 24.5271 32.2533 25.5901 30.2319 26.3916C28.2106 27.1584 26.1718 27.5417 24.1156 27.5417C23.9762 27.5417 23.8368 27.5417 23.6974 27.5417C23.5579 27.5069 23.4011 27.4894 23.2269 27.4894C22.7738 27.4546 22.4427 27.2803 22.2336 26.9667C22.0594 26.653 21.9722 26.3916 21.9722 26.1825C24.1678 26.1825 26.3286 25.834 28.4545 25.137C30.6153 24.44 32.5495 23.377 34.2572 21.9481C35.9998 20.4844 37.3415 18.6198 38.2825 16.3545C38.7704 15.1696 39.0144 14.0892 39.0144 13.1134C39.0144 12.1027 38.7007 11.2663 38.0734 10.6041C37.481 9.90707 36.4528 9.52371 34.9891 9.45401H34.6232C33.2291 9.45401 31.7131 9.8548 30.0751 10.6564C28.4371 11.4231 26.8165 12.5209 25.2134 13.9498C23.6102 15.3787 22.1465 17.069 20.8221 19.0206C19.5327 20.9723 18.4871 23.1505 17.6855 25.5552C16.884 27.9251 16.4832 30.4518 16.4832 33.1353V33.6058C16.4832 36.359 16.9014 38.5546 17.7378 40.1926C18.6091 41.7958 19.7592 42.9459 21.1881 43.6429C22.6518 44.3399 24.2375 44.6884 25.9452 44.6884C26.2241 44.6884 26.4854 44.6884 26.7294 44.6884C27.0082 44.6884 27.2696 44.671 27.5135 44.6362C29.2561 44.4619 30.9987 43.9391 32.7412 43.0679C34.4838 42.1617 36.1043 41.0465 37.6029 39.7222C39.1015 38.3978 40.3387 36.9515 41.3146 35.3832C42.3252 33.8149 42.9351 32.2815 43.1442 30.7829C43.1791 30.6086 43.2662 30.5215 43.4056 30.5215C43.545 30.5215 43.6844 30.5738 43.8238 30.6783C43.9632 30.7829 44.033 30.9048 44.033 31.0442V31.0965C44.033 32.6648 43.7019 34.1111 43.0397 35.4355C42.4124 36.7598 41.6805 37.9796 40.8441 39.0948C39.2758 41.1859 37.2544 42.8762 34.78 44.1657C32.3404 45.4552 29.8311 46.2393 27.2522 46.5181C26.9385 46.553 26.6248 46.5704 26.3112 46.5704C25.9975 46.6052 25.6839 46.6227 25.3702 46.6227Z" fill="#ED8074"/>
</svg>
