<svg width="189" height="49" viewBox="0 0 189 49" fill="none" xmlns="http://www.w3.org/2000/svg">
<path d="M33.8132 35.6435C34.4594 34.9213 35.2767 34.5411 36.2651 34.5031C37.2534 34.4651 38.1848 34.8072 39.0591 35.5295C39.8954 36.2137 40.3896 37.088 40.5416 38.1524C40.6937 39.1788 40.4656 40.0341 39.8574 40.7183C37.6146 43.2272 35.0486 45.1659 32.1596 46.5344C29.3086 47.9029 26.2295 48.5872 22.9223 48.5872C19.7671 48.5872 16.7831 48.017 13.97 46.8766C11.195 45.7362 8.76216 44.1776 6.67141 42.2009C4.61867 40.1861 2.98408 37.8103 1.76764 35.0733C0.589212 32.3363 0 29.3903 0 26.2351C0 23.08 0.589212 20.1339 1.76764 17.3969C2.98408 14.6599 4.61867 12.3031 6.67141 10.3264C8.76216 8.31165 11.195 6.73408 13.97 5.59367C16.7831 4.45326 19.7671 3.88306 22.9223 3.88306C26.2295 3.88306 29.3086 4.5673 32.1596 5.9358C35.0486 7.30429 37.6146 9.24299 39.8574 11.7519C40.4656 12.4361 40.6937 13.3105 40.5416 14.3748C40.3896 15.4012 39.8954 16.2565 39.0591 16.9408C38.1848 17.663 37.2534 18.0051 36.2651 17.9671C35.2767 17.9291 34.4594 17.549 33.8132 16.8267C33.0529 16.1045 32.2736 15.4392 31.4754 14.831C30.7151 14.1848 29.8978 13.6336 29.0235 13.1774C28.1872 12.6832 27.2558 12.3031 26.2295 12.037C25.2411 11.7709 24.1387 11.6379 22.9223 11.6379C20.9075 11.6379 19.0259 12.018 17.2772 12.7783C15.5286 13.5385 13.989 14.5839 12.6586 15.9144C11.3661 17.2449 10.3397 18.8034 9.57946 20.5901C8.81918 22.3387 8.43904 24.2204 8.43904 26.2351C8.43904 28.2498 8.81918 30.1505 9.57946 31.9372C10.3397 33.6858 11.3661 35.2254 12.6586 36.5558C13.989 37.8863 15.5286 38.9317 17.2772 39.692C19.0259 40.4522 20.9075 40.8324 22.9223 40.8324C24.1387 40.8324 25.2411 40.6993 26.2295 40.4332C27.2558 40.1671 28.1872 39.806 29.0235 39.3498C29.8978 38.8557 30.7151 38.3045 31.4754 37.6963C32.2736 37.05 33.0529 36.3658 33.8132 35.6435Z" fill="#8A71B8"/>
<path d="M71.8179 42.7711H71.7038C71.1336 43.5314 70.4874 44.2726 69.7651 44.9949C69.0429 45.6791 68.2256 46.2873 67.3132 46.8195C66.4009 47.3517 65.3935 47.7699 64.2911 48.074C63.2268 48.4161 62.0483 48.5872 60.7559 48.5872C58.475 48.5872 56.3273 48.15 54.3125 47.2757C52.2978 46.4014 50.5302 45.185 49.0096 43.6264C47.5271 42.0298 46.3487 40.1671 45.4743 38.0384C44.638 35.9096 44.2199 33.5908 44.2199 31.0819C44.2199 28.573 44.638 26.2541 45.4743 24.1254C46.3487 21.9966 47.5271 20.1529 49.0096 18.5944C50.5302 17.0358 52.2978 15.8194 54.3125 14.945C56.3273 14.0707 58.475 13.6336 60.7559 13.6336C62.0483 13.6336 63.2268 13.7856 64.2911 14.0897C65.3935 14.3938 66.4009 14.812 67.3132 15.3442C68.2256 15.8764 69.0429 16.5036 69.7651 17.2259C70.4874 17.9101 71.1336 18.6324 71.7038 19.3926H71.8179V17.568C71.8179 16.6176 72.217 15.8194 73.0153 15.1731C73.8136 14.4889 74.7639 14.1468 75.8663 14.1468C76.9687 14.1468 77.9191 14.4889 78.7173 15.1731C79.5156 15.8194 79.9148 16.6176 79.9148 17.568V44.6528C79.9148 45.6411 79.5156 46.4584 78.7173 47.1046C77.9191 47.7509 76.9687 48.074 75.8663 48.074C74.7639 48.074 73.8136 47.7509 73.0153 47.1046C72.217 46.4584 71.8179 45.6411 71.8179 44.6528V42.7711ZM71.8179 31.0819C71.8179 29.7514 71.5708 28.4969 71.0766 27.3185C70.5824 26.1401 69.8982 25.1137 69.0238 24.2394C68.1875 23.3651 67.1802 22.6808 66.0018 22.1867C64.8613 21.6545 63.6069 21.3884 62.2384 21.3884C60.9079 21.3884 59.6535 21.6545 58.475 22.1867C57.2966 22.6808 56.2702 23.3651 55.3959 24.2394C54.5596 25.1137 53.8944 26.1401 53.4002 27.3185C52.906 28.4969 52.6589 29.7514 52.6589 31.0819C52.6589 32.4123 52.906 33.6858 53.4002 34.9022C53.8944 36.0807 54.5596 37.107 55.3959 37.9814C56.2702 38.8557 57.2966 39.5589 58.475 40.0911C59.6535 40.5853 60.9079 40.8324 62.2384 40.8324C63.6069 40.8324 64.8613 40.5853 66.0018 40.0911C67.1802 39.5589 68.1875 38.8557 69.0238 37.9814C69.8982 37.107 70.5824 36.0807 71.0766 34.9022C71.5708 33.6858 71.8179 32.4123 71.8179 31.0819Z" fill="#8A71B8"/>
<path d="M88.2162 10.0413C88.2162 9.12895 88.5963 8.34967 89.3566 7.70343C90.1549 7.01919 91.1052 6.67706 92.2076 6.67706C93.31 6.67706 94.2413 7.01919 95.0016 7.70343C95.7999 8.34967 96.1991 9.12895 96.1991 10.0413V14.6029H99.0501C99.8864 14.6029 100.59 14.945 101.16 15.6293C101.768 16.3135 102.072 17.1498 102.072 18.1382C102.072 19.1266 101.768 19.9629 101.16 20.6471C100.59 21.3313 99.8864 21.6735 99.0501 21.6735H96.1991V37.8673C96.1991 38.4375 96.3891 38.9127 96.7692 39.2928C97.1494 39.673 97.6056 39.863 98.1377 39.863H99.0501C99.8864 39.863 100.59 40.2432 101.16 41.0034C101.768 41.7257 102.072 42.638 102.072 43.7404C102.072 44.8428 101.768 45.7742 101.16 46.5344C100.59 47.2567 99.8864 47.6178 99.0501 47.6178H98.1377C95.1347 47.6178 92.7208 46.8766 90.8961 45.394C89.1095 43.9115 88.2162 41.5927 88.2162 38.4375V21.6735H87.2468C86.4105 21.6735 85.6883 21.3313 85.08 20.6471C84.5098 19.9629 84.2247 19.1266 84.2247 18.1382C84.2247 17.1498 84.5098 16.3135 85.08 15.6293C85.6883 14.945 86.4105 14.6029 87.2468 14.6029H88.2162V10.0413Z" fill="#8A71B8"/>
<path d="M107.003 17.568C107.003 16.6176 107.402 15.8194 108.2 15.1731C108.998 14.4889 109.949 14.1468 111.051 14.1468C112.154 14.1468 113.104 14.4889 113.902 15.1731C114.7 15.8194 115.1 16.6176 115.1 17.568V44.6528C115.1 45.6031 114.7 46.4204 113.902 47.1046C113.104 47.7509 112.154 48.074 111.051 48.074C109.949 48.074 108.998 47.7509 108.2 47.1046C107.402 46.4204 107.003 45.6031 107.003 44.6528V17.568Z" fill="#8A71B8"/>
<path d="M140.173 45.6221C139.792 46.4584 139.203 47.0856 138.405 47.5038C137.607 47.9219 136.77 48.131 135.896 48.131C135.022 48.131 134.185 47.9219 133.387 47.5038C132.589 47.0856 132 46.4584 131.619 45.6221L119.474 19.3926C119.056 18.5183 119.056 17.625 119.474 16.7127C119.93 15.7623 120.653 15.0591 121.641 14.6029C122.629 14.1087 123.618 14.0137 124.606 14.3178C125.594 14.6219 126.298 15.1921 126.716 16.0284L135.896 35.8716L145.076 16.0284C145.266 15.6103 145.552 15.2492 145.932 14.945C146.312 14.6409 146.73 14.4319 147.186 14.3178C147.642 14.1658 148.117 14.1278 148.612 14.2038C149.144 14.2418 149.657 14.3748 150.151 14.6029C151.14 15.0591 151.843 15.7623 152.261 16.7127C152.717 17.625 152.736 18.5183 152.318 19.3926L140.173 45.6221Z" fill="#8A71B8"/>
<path d="M180.903 42.7711H180.789C180.219 43.5314 179.573 44.2726 178.85 44.9949C178.128 45.6791 177.311 46.2873 176.398 46.8195C175.486 47.3517 174.479 47.7699 173.376 48.074C172.312 48.4161 171.134 48.5872 169.841 48.5872C167.56 48.5872 165.412 48.15 163.398 47.2757C161.383 46.4014 159.615 45.185 158.095 43.6264C156.612 42.0298 155.434 40.1671 154.56 38.0384C153.723 35.9096 153.305 33.5908 153.305 31.0819C153.305 28.573 153.723 26.2541 154.56 24.1254C155.434 21.9966 156.612 20.1529 158.095 18.5944C159.615 17.0358 161.383 15.8194 163.398 14.945C165.412 14.0707 167.56 13.6336 169.841 13.6336C171.134 13.6336 172.312 13.7856 173.376 14.0897C174.479 14.3938 175.486 14.812 176.398 15.3442C177.311 15.8764 178.128 16.5036 178.85 17.2259C179.573 17.9101 180.219 18.6324 180.789 19.3926H180.903V17.568C180.903 16.6176 181.302 15.8194 182.101 15.1731C182.899 14.4889 183.849 14.1468 184.952 14.1468C186.054 14.1468 187.004 14.4889 187.803 15.1731C188.601 15.8194 189 16.6176 189 17.568V44.6528C189 45.6411 188.601 46.4584 187.803 47.1046C187.004 47.7509 186.054 48.074 184.952 48.074C183.849 48.074 182.899 47.7509 182.101 47.1046C181.302 46.4584 180.903 45.6411 180.903 44.6528V42.7711ZM180.903 31.0819C180.903 29.7514 180.656 28.4969 180.162 27.3185C179.668 26.1401 178.983 25.1137 178.109 24.2394C177.273 23.3651 176.265 22.6808 175.087 22.1867C173.947 21.6545 172.692 21.3884 171.324 21.3884C169.993 21.3884 168.739 21.6545 167.56 22.1867C166.382 22.6808 165.355 23.3651 164.481 24.2394C163.645 25.1137 162.98 26.1401 162.485 27.3185C161.991 28.4969 161.744 29.7514 161.744 31.0819C161.744 32.4123 161.991 33.6858 162.485 34.9022C162.98 36.0807 163.645 37.107 164.481 37.9814C165.355 38.8557 166.382 39.5589 167.56 40.0911C168.739 40.5853 169.993 40.8324 171.324 40.8324C172.692 40.8324 173.947 40.5853 175.087 40.0911C176.265 39.5589 177.273 38.8557 178.109 37.9814C178.983 37.107 179.668 36.0807 180.162 34.9022C180.656 33.6858 180.903 32.4123 180.903 31.0819Z" fill="#8A71B8"/>
<path d="M9.27545 10.3586C11.6459 7.76721 16.1478 5.03204 21.8647 5.17624C17.6637 6.66307 12.1054 8.24493 9.27545 10.3586Z" fill="white" fill-opacity="0.5"/>
<path d="M49.6776 20.1967C51.7332 17.6025 55.6458 14.8617 60.6283 14.9987C56.9732 16.4908 52.1356 18.0796 49.6776 20.1967Z" fill="white" fill-opacity="0.5"/>
<path d="M159.061 20.0883C161.117 17.4941 165.029 14.7533 170.012 14.8903C166.356 16.3824 161.519 17.9712 159.061 20.0883Z" fill="white" fill-opacity="0.5"/>
<path d="M88.8671 9.86856C89.5249 8.53935 90.7819 7.13892 92.3905 7.22036C91.2139 7.97939 89.6559 8.78554 88.8671 9.86856Z" fill="white" fill-opacity="0.5"/>
<path d="M107.735 17.1405C108.393 15.8113 109.65 14.4108 111.258 14.4923C110.082 15.2513 108.524 16.0574 107.735 17.1405Z" fill="white" fill-opacity="0.5"/>
<path d="M119.665 18.193C119.993 16.7688 120.851 15.1631 122.33 14.9429C121.414 15.9055 120.162 16.9854 119.665 18.193Z" fill="white" fill-opacity="0.5"/>
<path d="M145.244 16.3784C146.251 15.3192 147.807 14.3733 149.191 14.9356C147.914 15.2989 146.286 15.5916 145.244 16.3784Z" fill="white" fill-opacity="0.5"/>
<path fill-rule="evenodd" clip-rule="evenodd" d="M110.92 12.3517C108.843 10.5439 107.779 8.09021 108.329 5.72032C108.88 3.35045 110.918 1.61762 113.579 0.91104C115.656 2.71881 116.72 5.17255 116.169 7.54243C115.618 9.91231 113.581 11.6451 110.92 12.3517Z" fill="#8AC544"/>
<path fill-rule="evenodd" clip-rule="evenodd" d="M111.012 11.9563C109.1 10.2236 108.176 7.95434 108.677 5.80107C109.177 3.64781 111.007 2.01843 113.487 1.30644C115.399 3.03915 116.322 5.30842 115.822 7.46169C115.321 9.61494 113.492 11.2443 111.012 11.9563ZM108.329 5.72032C107.779 8.09021 108.843 10.5439 110.92 12.3517C113.581 11.6451 115.618 9.91231 116.169 7.54243C116.72 5.17255 115.656 2.71881 113.579 0.91104C110.918 1.61762 108.88 3.35045 108.329 5.72032Z" fill="black"/>
<path d="M113.522 1.15523L111.14 12.1209L110.824 12.0475L113.522 1.15523Z" fill="black"/>
<path d="M111.091 3.20518C110.105 4.08938 109.221 5.13124 109.135 5.07002C109.135 5.07002 109.669 3.89413 110.655 3.00994C111.64 2.12574 112.977 1.65865 112.977 1.65865C113.063 1.71986 112.077 2.32099 111.091 3.20518Z" fill="white" fill-opacity="0.5"/>
</svg>
