<svg width="126" height="50" viewBox="0 0 126 50" fill="none" xmlns="http://www.w3.org/2000/svg">
<rect width="125.5" height="50" rx="25" fill="#547131"/>
<path d="M36.864 30.612C36.1173 30.612 35.4453 30.484 34.848 30.228C34.2507 29.9613 33.7813 29.588 33.44 29.108C33.0987 28.628 32.928 28.068 32.928 27.428H34.88C34.9227 27.908 35.1093 28.3027 35.44 28.612C35.7813 28.9213 36.256 29.076 36.864 29.076C37.4933 29.076 37.984 28.9267 38.336 28.628C38.688 28.3187 38.864 27.924 38.864 27.444C38.864 27.0707 38.752 26.7667 38.528 26.532C38.3147 26.2973 38.0427 26.116 37.712 25.988C37.392 25.86 36.944 25.7213 36.368 25.572C35.6427 25.38 35.0507 25.188 34.592 24.996C34.144 24.7933 33.76 24.484 33.44 24.068C33.12 23.652 32.96 23.0973 32.96 22.404C32.96 21.764 33.12 21.204 33.44 20.724C33.76 20.244 34.208 19.876 34.784 19.62C35.36 19.364 36.0267 19.236 36.784 19.236C37.8613 19.236 38.7413 19.508 39.424 20.052C40.1173 20.5853 40.5013 21.3213 40.576 22.26H38.56C38.528 21.8547 38.336 21.508 37.984 21.22C37.632 20.932 37.168 20.788 36.592 20.788C36.0693 20.788 35.6427 20.9213 35.312 21.188C34.9813 21.4547 34.816 21.8387 34.816 22.34C34.816 22.6813 34.9173 22.964 35.12 23.188C35.3333 23.4013 35.6 23.572 35.92 23.7C36.24 23.828 36.6773 23.9667 37.232 24.116C37.968 24.3187 38.5653 24.5213 39.024 24.724C39.4933 24.9267 39.888 25.2413 40.208 25.668C40.5387 26.084 40.704 26.644 40.704 27.348C40.704 27.9133 40.5493 28.4467 40.24 28.948C39.9413 29.4493 39.4987 29.8547 38.912 30.164C38.336 30.4627 37.6533 30.612 36.864 30.612ZM42.2483 26.052C42.2483 25.1667 42.4296 24.3827 42.7923 23.7C43.1656 23.0173 43.6669 22.4893 44.2963 22.116C44.9363 21.732 45.6403 21.54 46.4083 21.54C47.1016 21.54 47.7043 21.6787 48.2163 21.956C48.7389 22.2227 49.1549 22.5587 49.4643 22.964V21.684H51.3043V30.5H49.4643V29.188C49.1549 29.604 48.7336 29.9507 48.2003 30.228C47.6669 30.5053 47.0589 30.644 46.3763 30.644C45.6189 30.644 44.9256 30.452 44.2963 30.068C43.6669 29.6733 43.1656 29.1293 42.7923 28.436C42.4296 27.732 42.2483 26.9373 42.2483 26.052ZM49.4643 26.084C49.4643 25.476 49.3363 24.948 49.0803 24.5C48.8349 24.052 48.5096 23.7107 48.1043 23.476C47.6989 23.2413 47.2616 23.124 46.7923 23.124C46.3229 23.124 45.8856 23.2413 45.4803 23.476C45.0749 23.7 44.7443 24.036 44.4883 24.484C44.2429 24.9213 44.1203 25.444 44.1203 26.052C44.1203 26.66 44.2429 27.1933 44.4883 27.652C44.7443 28.1107 45.0749 28.4627 45.4803 28.708C45.8963 28.9427 46.3336 29.06 46.7923 29.06C47.2616 29.06 47.6989 28.9427 48.1043 28.708C48.5096 28.4733 48.8349 28.132 49.0803 27.684C49.3363 27.2253 49.4643 26.692 49.4643 26.084ZM54.628 20.516C54.2973 20.516 54.02 20.404 53.796 20.18C53.572 19.956 53.46 19.6787 53.46 19.348C53.46 19.0173 53.572 18.74 53.796 18.516C54.02 18.292 54.2973 18.18 54.628 18.18C54.948 18.18 55.22 18.292 55.444 18.516C55.668 18.74 55.78 19.0173 55.78 19.348C55.78 19.6787 55.668 19.956 55.444 20.18C55.22 20.404 54.948 20.516 54.628 20.516ZM55.524 21.684V30.5H53.7V21.684H55.524ZM59.7428 22.964C60.0094 22.516 60.3614 22.1693 60.7988 21.924C61.2468 21.668 61.7748 21.54 62.3828 21.54V23.428H61.9188C61.2041 23.428 60.6601 23.6093 60.2868 23.972C59.9241 24.3347 59.7428 24.964 59.7428 25.86V30.5H57.9188V21.684H59.7428V22.964Z" fill="#F9F9F9"/>
<path fill-rule="evenodd" clip-rule="evenodd" d="M80 25V29.1071V30.25C80 33.0114 82.2386 35.25 85 35.25H86.5C90.366 35.25 93.5 32.116 93.5 28.25V20.75C93.5 16.884 90.366 13.75 86.5 13.75H85C82.2386 13.75 80 15.9886 80 18.75V19.8929V23.5H84L84.0036 23.5L82.1029 21.8106C81.7933 21.5354 81.7655 21.0613 82.0406 20.7517C82.3158 20.4421 82.7899 20.4143 83.0995 20.6894L86.3722 23.5985C86.5294 23.7382 86.6207 23.9375 86.6238 24.1478C86.627 24.358 86.5418 24.56 86.3889 24.7044L83.1162 27.7953C82.815 28.0797 82.3403 28.0661 82.0559 27.765C81.7715 27.4638 81.7851 26.9891 82.0862 26.7047L83.8912 25H80ZM84.7639 24.1758L84.7477 24.1911C84.7469 24.1802 84.7458 24.1694 84.7445 24.1586L84.7639 24.1758Z" fill="white"/>
<path d="M73 23.5C72.5858 23.5 72.25 23.8358 72.25 24.25C72.25 24.6642 72.5858 25 73 25V23.5ZM79.3 25H80.05V23.5H79.3V25ZM73 25H79.3V23.5H73V25Z" fill="white"/>
</svg>
