<svg width="35" height="35" viewBox="0 0 35 35" fill="none" xmlns="http://www.w3.org/2000/svg">
<path d="M13.1252 18.9583C14.736 18.9583 16.0418 17.6525 16.0418 16.0417C16.0418 14.4308 14.736 13.125 13.1252 13.125C11.5143 13.125 10.2085 14.4308 10.2085 16.0417C10.2085 17.6525 11.5143 18.9583 13.1252 18.9583Z" stroke="#547131" stroke-width="2" stroke-linecap="round" stroke-linejoin="round"/>
<path d="M29.1667 8.75H5.83333C5.02792 8.75 4.375 9.40292 4.375 10.2083V24.7917C4.375 25.5971 5.02792 26.25 5.83333 26.25H29.1667C29.9721 26.25 30.625 25.5971 30.625 24.7917V10.2083C30.625 9.40292 29.9721 8.75 29.1667 8.75Z" stroke="#547131" stroke-width="2" stroke-linecap="round" stroke-linejoin="round"/>
<path d="M8.75 26.25C8.75 24.6391 10.7088 23.3333 13.125 23.3333C15.5412 23.3333 17.5 24.6391 17.5 26.25" stroke="#547131" stroke-width="2" stroke-linecap="round" stroke-linejoin="round"/>
<path d="M26.2498 20.4167L20.4165 20.4167" stroke="#547131" stroke-width="2" stroke-linecap="round" stroke-linejoin="round"/>
<path d="M26.25 16.0417L21.875 16.0417" stroke="#547131" stroke-width="2" stroke-linecap="round" stroke-linejoin="round"/>
</svg>
