<svg width="35" height="35" viewBox="0 0 35 35" fill="none" xmlns="http://www.w3.org/2000/svg">
<path d="M17.5 30.625C24.7487 30.625 30.625 24.7487 30.625 17.5C30.625 10.2513 24.7487 4.375 17.5 4.375C10.2513 4.375 4.375 10.2513 4.375 17.5C4.375 24.7487 10.2513 30.625 17.5 30.625Z" stroke="#547131" stroke-width="2" stroke-linecap="round" stroke-linejoin="round"/>
<path d="M25.1073 28.1929C23.2381 26.1054 20.5223 24.7917 17.4997 24.7917C14.4771 24.7917 11.7613 26.1054 9.89209 28.1929" stroke="#547131" stroke-width="2" stroke-linecap="round" stroke-linejoin="round"/>
<path d="M17.5 20.4167C19.9162 20.4167 21.875 18.4579 21.875 16.0417C21.875 13.6254 19.9162 11.6667 17.5 11.6667C15.0838 11.6667 13.125 13.6254 13.125 16.0417C13.125 18.4579 15.0838 20.4167 17.5 20.4167Z" stroke="#547131" stroke-width="2" stroke-linecap="round" stroke-linejoin="round"/>
</svg>
